<?xml version="1.0" encoding="UTF-8" standalone="no"?>
<!DOCTYPE svg PUBLIC "-//W3C//DTD SVG 1.1//EN" "http://www.w3.org/Graphics/SVG/1.1/DTD/svg11.dtd">
<svg xmlns="http://www.w3.org/2000/svg" version="1.1" viewBox="0 0 1200 400">
<g stroke-width="2.00" fill="none" stroke-linecap="butt">
<path stroke="#f18393" vector-effect="non-scaling-stroke" d="
  M 208.01 100.72
  C 201.23 85.50 189.37 72.91 175.36 64.01
  A 0.33 0.33 0.0 0 0 174.88 64.44
  C 186.81 88.77 181.84 112.32 165.33 132.57
  C 146.44 155.74 123.25 176.74 136.81 209.44
  C 144.93 229.01 167.57 239.72 187.48 230.74
  C 205.11 222.79 207.27 203.46 202.96 186.51
  C 200.94 178.62 197.15 168.42 197.57 160.85
  C 198.10 151.11 204.02 141.86 208.00 133.06
  Q 215.25 116.99 208.01 100.72"
/>
<path stroke="#f18393" vector-effect="non-scaling-stroke" d="
  M 257.55 278.26
  C 273.34 270.86 281.61 253.61 280.23 236.47
  C 278.03 209.23 257.98 194.08 243.88 173.21
  C 233.83 158.35 230.72 143.45 241.15 127.82
  A 0.26 0.26 0.0 0 0 240.81 127.45
  C 225.14 136.07 211.16 152.19 213.94 171.24
  C 214.60 175.72 216.52 181.07 217.94 185.94
  C 221.19 197.09 223.36 204.94 220.92 215.82
  C 219.15 223.73 213.35 231.01 211.34 238.27
  C 205.72 258.55 215.63 278.48 237.43 281.43
  Q 247.77 282.83 257.55 278.26"
/>
<path stroke="#780c2a" vector-effect="non-scaling-stroke" d="
  M 806.5299 147.2485
  A 9.84 9.40 -0.3 0 0 796.6408 137.9001
  A 9.84 9.40 -0.3 0 0 786.8501 147.3515
  A 9.84 9.40 -0.3 0 0 796.7392 156.6999
  A 9.84 9.40 -0.3 0 0 806.5299 147.2485"
/>
<path stroke="#780c2a" vector-effect="non-scaling-stroke" d="
  M 516.59 156.73
  C 527.80 157.68 528.95 169.49 522.91 176.73
  C 521.49 178.44 518.70 180.84 516.43 182.45
  Q 503.14 191.82 496.31 197.56
  C 486.74 205.62 486.76 215.43 486.62 227.37
  A 0.62 0.62 0.0 0 0 487.24 228.00
  L 541.75 228.00
  Q 542.25 228.00 542.25 227.50
  L 542.25 214.50
  Q 542.25 214.00 541.75 214.00
  L 505.00 214.00
  Q 504.03 214.00 504.22 213.04
  C 505.79 205.40 514.94 200.81 520.79 196.55
  C 530.97 189.13 541.40 182.13 542.87 169.48
  C 544.51 155.48 536.29 145.65 522.76 143.27
  Q 499.56 139.19 485.70 156.55
  Q 485.30 157.05 485.73 157.54
  L 494.43 167.33
  A 0.78 0.77 -49.6 0 0 495.66 167.23
  Q 503.09 155.57 516.59 156.73"
/>
<path stroke="#780c2a" vector-effect="non-scaling-stroke" d="
  M 473.78 215.95
  Q 478.64 207.92 476.63 198.53
  Q 473.79 185.24 460.92 182.09
  A 0.94 0.94 0.0 0 1 460.67 180.37
  C 478.08 170.20 471.95 145.61 452.19 144.01
  Q 438.31 142.89 411.29 143.71
  Q 410.75 143.73 410.75 144.27
  L 410.75 227.67
  A 0.35 0.34 0.0 0 0 411.10 228.01
  Q 430.56 228.04 449.93 227.81
  C 459.95 227.69 468.38 224.85 473.78 215.95"
/>
<path stroke="#780c2a" vector-effect="non-scaling-stroke" d="
  M 597.93 227.84
  C 609.36 227.72 621.29 223.40 624.30 211.08
  Q 629.74 188.85 609.38 181.81
  A 0.83 0.83 0.0 0 1 609.23 180.31
  C 627.40 169.67 619.55 144.17 599.00 143.73
  Q 579.31 143.31 559.67 143.56
  A 0.42 0.42 0.0 0 0 559.25 143.98
  L 559.25 227.51
  A 0.49 0.49 0.0 0 0 559.74 228.00
  Q 578.87 228.05 597.93 227.84"
/>
<path stroke="#780c2a" vector-effect="non-scaling-stroke" d="
  M 660.01 164.00
  C 642.53 167.33 635.90 182.59 636.57 198.77
  C 637.41 218.99 651.85 231.05 671.92 228.82
  C 694.23 226.35 702.10 206.81 698.02 186.95
  C 694.16 168.15 677.80 160.61 660.01 164.00"
/>
<path stroke="#780c2a" vector-effect="non-scaling-stroke" d="
  M 729.30 173.47
  L 729.23 164.99
  A 0.75 0.75 0.0 0 0 728.48 164.25
  L 714.50 164.25
  A 0.50 0.50 0.0 0 0 714.00 164.75
  L 714.00 227.50
  Q 714.00 228.00 714.50 228.00
  L 729.50 228.00
  A 0.51 0.51 0.0 0 0 730.01 227.49
  Q 729.97 213.30 730.01 199.14
  C 730.05 186.70 731.52 175.26 746.91 176.94
  C 751.68 177.46 754.84 180.93 754.96 185.57
  Q 755.52 206.51 755.15 227.38
  A 0.61 0.61 0.0 0 0 755.76 228.00
  L 770.50 228.00
  Q 771.18 228.00 771.19 227.32
  Q 771.48 209.22 770.92 183.52
  C 770.71 173.77 765.86 165.81 756.06 163.80
  C 745.95 161.72 735.99 164.42 730.63 173.81
  A 0.71 0.71 0.0 0 1 729.30 173.47"
/>
<path stroke="#780c2a" vector-effect="non-scaling-stroke" d="
  M 827.19 172.94
  C 819.61 181.84 818.24 194.24 820.46 205.30
  C 823.11 218.51 832.03 226.77 845.05 228.72
  C 863.54 231.48 877.92 222.32 881.20 203.88
  C 883.49 190.94 880.39 174.89 868.95 168.03
  C 856.88 160.80 837.36 160.98 827.19 172.94"
/>
<path stroke="#780c2a" vector-effect="non-scaling-stroke" d="
  M 987.67 173.77
  A 0.74 0.74 0.0 0 1 986.25 173.50
  L 986.24 164.90
  Q 986.24 164.25 985.59 164.25
  L 971.25 164.25
  A 0.50 0.50 0.0 0 0 970.75 164.75
  L 970.75 227.38
  Q 970.75 228.00 971.38 228.00
  L 985.97 228.00
  Q 986.77 228.00 986.76 227.21
  Q 986.71 211.95 986.78 196.80
  C 986.83 184.70 992.79 174.62 1006.86 179.54
  A 1.08 1.07 15.3 0 0 1008.27 178.74
  L 1010.74 165.98
  A 0.70 0.69 -73.9 0 0 1010.31 165.20
  C 1001.37 161.71 991.50 164.38 987.67 173.77"
/>
<path stroke="#780c2a" vector-effect="non-scaling-stroke" d="
  M 788.66 233.69
  C 788.63 241.18 782.23 242.76 776.35 240.32
  A 0.94 0.94 0.0 0 0 775.06 241.05
  L 773.30 252.50
  A 0.88 0.87 -77.9 0 0 773.92 253.47
  C 787.84 257.42 804.19 253.60 804.47 236.23
  Q 805.04 200.45 804.63 164.63
  A 0.39 0.39 0.0 0 0 804.24 164.25
  L 789.09 164.25
  A 0.36 0.36 0.0 0 0 788.73 164.61
  Q 788.81 199.19 788.66 233.69"
/>
<path stroke="#780c2a" vector-effect="non-scaling-stroke" d="
  M 910.51 228.45
  C 920.81 230.62 929.52 228.25 935.33 218.92
  Q 935.57 218.52 936.04 218.51
  C 937.53 218.48 937.00 225.98 937.04 227.33
  Q 937.05 228.00 937.72 228.00
  L 951.75 228.00
  Q 952.25 228.00 952.25 227.50
  L 952.25 164.75
  A 0.50 0.50 0.0 0 0 951.75 164.25
  L 936.81 164.25
  A 0.57 0.57 0.0 0 0 936.24 164.82
  Q 936.28 181.53 936.22 198.28
  C 936.19 207.21 932.66 215.70 922.61 215.65
  C 916.89 215.62 912.06 212.91 912.05 206.67
  Q 912.00 185.78 911.99 164.78
  Q 911.99 164.25 911.46 164.25
  L 896.35 164.25
  A 0.34 0.34 0.0 0 0 896.01 164.59
  Q 895.97 185.56 896.03 206.47
  C 896.06 216.68 899.37 226.10 910.51 228.45"
/>
<path stroke="#f18393" vector-effect="non-scaling-stroke" d="
  M 191.03 248.86
  Q 189.50 248.60 188.00 248.81
  C 181.28 249.77 174.06 250.80 167.62 250.25
  Q 141.55 248.04 128.92 224.45
  Q 128.52 223.71 128.02 224.39
  Q 127.27 225.40 127.07 227.25
  Q 124.34 252.09 134.08 273.14
  C 157.23 323.18 220.75 332.09 259.41 294.37
  C 260.11 293.70 260.77 292.37 261.56 291.56
  Q 261.95 291.18 261.62 290.74
  Q 261.27 290.28 260.50 290.51
  Q 249.44 293.76 238.01 295.04
  C 216.25 297.48 196.39 283.48 194.02 260.99
  Q 193.47 255.71 192.69 250.56
  A 2.03 2.02 0.8 0 0 191.03 248.86"
/>
<path stroke="#780c2a" vector-effect="non-scaling-stroke" d="
  M 466.69 285.46
  L 470.27 290.58
  Q 470.56 291.00 471.07 291.00
  L 474.77 291.00
  Q 475.59 291.00 475.10 290.35
  L 469.27 282.62
  A 0.72 0.70 -43.0 0 1 469.31 281.72
  L 474.73 275.75
  A 0.28 0.28 0.0 0 0 474.51 275.28
  L 470.90 275.48
  Q 470.42 275.50 470.06 275.83
  Q 467.02 278.58 464.64 281.91
  A 0.25 0.25 0.0 0 1 464.18 281.76
  L 464.28 269.77
  Q 464.29 269.25 463.77 269.25
  L 460.50 269.25
  Q 460.00 269.25 460.00 269.75
  L 460.00 290.25
  Q 460.00 291.00 460.75 291.00
  L 463.72 291.00
  Q 464.28 291.00 464.27 290.43
  C 464.22 289.00 463.68 285.22 465.78 285.04
  Q 466.36 284.99 466.69 285.46"
/>
<path stroke="#780c2a" vector-effect="non-scaling-stroke" d="
  M 501.26 269.77
  A 0.52 0.52 0.0 0 0 500.74 269.25
  L 497.52 269.25
  A 0.52 0.52 0.0 0 0 497.00 269.77
  L 497.00 290.47
  A 0.52 0.52 0.0 0 0 497.52 290.99
  L 500.74 290.99
  A 0.52 0.52 0.0 0 0 501.26 290.47
  L 501.26 269.77"
/>
<path stroke="#780c2a" vector-effect="non-scaling-stroke" d="
  M 816.73 290.03
  L 816.76 269.88
  Q 816.76 269.25 816.13 269.25
  L 813.03 269.25
  Q 812.32 269.25 812.35 269.96
  L 812.62 276.42
  A 0.34 0.34 0.0 0 1 812.08 276.71
  C 798.71 267.02 799.09 299.79 812.14 289.45
  Q 812.71 288.99 812.90 289.70
  Q 813.50 291.86 816.24 290.75
  A 0.79 0.77 -11.3 0 0 816.73 290.03"
/>
<path stroke="#780c2a" vector-effect="non-scaling-stroke" d="
  M 421.28 280.02
  L 422.68 278.83
  Q 423.04 278.52 423.18 278.07
  C 425.90 269.48 414.83 270.17 409.59 270.61
  Q 409.00 270.66 409.00 271.26
  L 409.00 290.22
  Q 409.00 290.67 409.45 290.76
  Q 414.79 291.72 419.87 290.35
  C 424.42 289.12 426.45 282.16 421.44 280.76
  Q 420.66 280.54 421.28 280.02"
/>
<path stroke="#780c2a" vector-effect="non-scaling-stroke" d="
  M 490.39 279.98
  C 494.88 276.61 492.42 271.11 487.25 270.68
  Q 482.89 270.33 478.41 270.56
  A 0.43 0.43 0.0 0 0 478.00 270.99
  L 478.00 290.24
  Q 478.00 290.77 478.53 290.82
  C 485.08 291.41 494.80 291.92 492.97 283.04
  Q 492.68 281.60 490.47 280.66
  Q 489.84 280.39 490.39 279.98"
/>
<path stroke="#780c2a" vector-effect="non-scaling-stroke" d="
  M 572.10 284.70
  L 567.87 271.12
  Q 567.68 270.50 567.03 270.50
  L 562.41 270.50
  Q 561.75 270.50 561.75 271.15
  L 561.75 290.25
  Q 561.75 291.00 562.50 291.00
  L 565.16 291.00
  Q 565.82 291.00 565.81 290.34
  L 565.61 276.34
  A 0.19 0.18 36.6 0 1 565.97 276.29
  L 570.32 290.49
  Q 570.48 291.00 571.01 291.00
  L 573.97 291.00
  Q 574.49 291.00 574.65 290.50
  L 579.31 276.23
  Q 579.74 274.93 579.74 276.29
  L 579.72 290.52
  A 0.49 0.48 0.0 0 0 580.21 291.00
  L 583.00 291.00
  Q 583.75 291.00 583.75 290.25
  L 583.75 271.25
  Q 583.75 270.50 583.00 270.50
  L 578.45 270.50
  Q 577.79 270.50 577.59 271.13
  L 573.17 284.70
  Q 572.62 286.37 572.10 284.70"
/>
<path stroke="#780c2a" vector-effect="non-scaling-stroke" d="
  M 763.18 276.00
  L 767.55 290.46
  Q 767.71 291.00 768.27 291.00
  L 771.12 291.00
  Q 771.79 291.00 771.99 290.37
  L 776.39 276.38
  A 0.32 0.32 0.0 0 1 777.02 276.48
  L 776.95 290.35
  A 0.65 0.65 0.0 0 0 777.60 291.00
  L 780.50 291.00
  Q 781.00 291.00 781.00 290.50
  L 781.00 271.15
  Q 781.00 270.50 780.34 270.50
  L 775.71 270.50
  Q 775.06 270.50 774.86 271.12
  L 770.31 285.06
  A 0.44 0.44 0.0 0 1 769.48 285.05
  L 765.09 270.93
  Q 764.95 270.50 764.50 270.50
  L 759.66 270.50
  Q 759.00 270.50 759.00 271.15
  L 759.00 290.25
  Q 759.00 291.00 759.75 291.00
  L 762.42 291.00
  Q 763.09 291.00 763.08 290.33
  L 762.78 276.06
  Q 762.75 274.58 763.18 276.00"
/>
<path stroke="#780c2a" vector-effect="non-scaling-stroke" d="
  M 850.60 278.50
  A 0.44 0.44 0.0 0 1 850.16 278.04
  L 850.30 274.37
  A 0.44 0.44 0.0 0 1 850.75 273.95
  L 857.05 274.10
  A 0.44 0.44 0.0 0 0 857.50 273.66
  L 857.50 270.94
  A 0.44 0.44 0.0 0 0 857.06 270.50
  L 846.19 270.50
  A 0.44 0.44 0.0 0 0 845.75 270.94
  L 845.75 290.56
  A 0.44 0.44 0.0 0 0 846.19 291.00
  L 857.06 291.00
  A 0.44 0.44 0.0 0 0 857.50 290.56
  L 857.50 287.97
  A 0.44 0.44 0.0 0 0 857.08 287.53
  L 850.67 287.30
  A 0.44 0.44 0.0 0 1 850.25 286.86
  L 850.25 282.58
  A 0.44 0.44 0.0 0 1 850.70 282.14
  L 856.55 282.30
  A 0.44 0.44 0.0 0 0 857.00 281.86
  L 857.00 278.94
  A 0.44 0.44 0.0 0 0 856.56 278.50
  L 850.60 278.50"
/>
<path stroke="#780c2a" vector-effect="non-scaling-stroke" d="
  M 739.48 278.99
  C 739.54 282.05 738.74 287.38 740.66 289.68
  C 742.46 291.83 750.21 292.38 748.08 287.77
  Q 747.84 287.25 747.31 287.48
  Q 745.69 288.21 744.27 287.42
  Q 743.75 287.12 743.75 286.52
  L 743.75 279.25
  Q 743.75 278.50 744.50 278.50
  L 747.37 278.50
  Q 748.00 278.50 748.00 277.87
  L 748.00 275.88
  Q 748.00 275.25 747.37 275.25
  L 744.25 275.25
  Q 743.75 275.25 743.75 274.75
  L 743.75 272.78
  Q 743.75 272.32 743.33 272.14
  C 739.81 270.70 741.15 275.36 738.20 276.25
  Q 737.65 276.42 737.54 276.98
  L 737.36 277.91
  Q 737.24 278.50 737.84 278.50
  L 738.98 278.50
  Q 739.47 278.50 739.48 278.99"
/>
<path stroke="#780c2a" vector-effect="non-scaling-stroke" d="
  M 437.49 289.57
  Q 437.91 291.78 440.45 290.91
  A 0.75 0.74 -9.0 0 0 440.96 290.22
  C 441.24 281.94 442.45 271.34 429.06 276.05
  Q 428.41 276.28 428.71 276.89
  L 429.71 278.89
  Q 429.94 279.37 430.43 279.13
  C 432.06 278.33 437.07 277.15 436.63 280.66
  Q 436.56 281.26 435.96 281.24
  C 419.89 280.85 428.58 297.09 436.60 289.28
  A 0.53 0.53 0.0 0 1 437.49 289.57"
/>
<path stroke="#780c2a" vector-effect="non-scaling-stroke" d="
  M 456.19 275.87
  C 439.95 269.92 440.79 296.92 455.67 290.43
  Q 456.25 290.17 456.25 289.54
  L 456.25 287.25
  Q 456.25 286.61 455.68 286.91
  Q 453.24 288.17 450.52 287.53
  Q 449.99 287.40 449.71 286.92
  Q 447.65 283.31 449.57 279.60
  Q 449.79 279.16 450.24 278.97
  Q 452.63 277.94 454.81 279.33
  Q 455.50 279.78 455.77 279.00
  L 456.58 276.71
  Q 456.80 276.09 456.19 275.87"
/>
<path stroke="#780c2a" vector-effect="non-scaling-stroke" d="
  M 515.02 289.25
  Q 515.61 291.78 518.20 290.87
  A 0.93 0.91 79.7 0 0 518.81 289.97
  C 518.71 287.14 519.20 279.16 517.42 277.09
  C 515.03 274.31 509.70 275.04 506.84 276.03
  Q 506.25 276.24 506.48 276.82
  L 507.30 278.89
  Q 507.52 279.45 508.05 279.18
  C 509.80 278.30 514.63 277.07 514.42 280.69
  Q 514.38 281.25 513.82 281.25
  C 510.47 281.22 505.59 281.53 504.78 285.38
  C 503.70 290.50 508.95 292.47 513.09 290.34
  Q 513.51 290.12 513.79 289.74
  L 514.26 289.10
  Q 514.81 288.36 515.02 289.25"
/>
<path stroke="#780c2a" vector-effect="non-scaling-stroke" d="
  M 527.34 287.75
  A 0.40 0.40 0.0 0 1 527.02 287.12
  L 533.49 278.24
  A 1.90 1.90 0.0 0 0 531.92 275.23
  L 522.67 275.40
  Q 522.00 275.41 522.00 276.08
  L 522.00 277.87
  Q 522.00 278.50 522.62 278.50
  L 528.04 278.50
  Q 528.85 278.50 528.37 279.16
  L 521.39 288.72
  A 1.43 1.43 0.0 0 0 522.54 291.00
  L 533.25 291.00
  Q 533.75 291.00 533.75 290.50
  L 533.75 288.25
  Q 533.75 287.75 533.25 287.75
  L 527.34 287.75"
/>
<path stroke="#780c2a" vector-effect="non-scaling-stroke" d="
  M 542.53 275.11
  C 531.88 275.87 534.52 296.57 549.00 290.22
  Q 549.38 290.06 549.43 289.65
  L 549.66 287.68
  Q 549.72 287.14 549.19 287.25
  C 545.86 287.93 543.42 289.18 540.67 286.05
  A 1.09 1.08 69.4 0 1 541.48 284.25
  L 549.77 284.25
  Q 550.29 284.25 550.37 283.74
  C 551.17 278.37 547.89 274.73 542.53 275.11"
/>
<path stroke="#780c2a" vector-effect="non-scaling-stroke" d="
  M 596.71 281.27
  C 579.78 281.30 589.64 296.98 597.17 289.19
  Q 597.77 288.56 597.90 289.42
  Q 598.27 291.88 601.05 290.87
  Q 601.56 290.68 601.54 290.15
  C 601.46 287.22 601.91 279.38 600.27 277.22
  C 598.00 274.24 592.46 275.03 589.58 276.04
  Q 588.92 276.27 589.22 276.90
  L 590.16 278.90
  Q 590.39 279.40 590.88 279.15
  Q 593.35 277.88 595.96 278.48
  Q 596.51 278.61 596.71 279.15
  L 597.22 280.53
  Q 597.49 281.26 596.71 281.27"
/>
<path stroke="#780c2a" vector-effect="non-scaling-stroke" d="
  M 609.36 276.60
  L 608.93 275.59
  Q 608.71 275.09 608.18 275.19
  L 606.18 275.57
  Q 605.75 275.65 605.75 276.08
  L 605.75 290.25
  Q 605.75 291.00 606.50 291.00
  L 609.50 291.00
  Q 610.05 291.00 610.03 290.45
  C 609.91 287.21 608.66 278.36 613.75 278.48
  A 2.16 2.16 0.0 0 1 615.86 280.60
  L 616.06 290.41
  Q 616.07 291.00 616.66 291.00
  L 619.55 291.00
  Q 620.23 291.00 620.24 290.32
  C 620.28 286.71 620.88 280.22 619.30 277.49
  C 617.51 274.41 613.06 274.52 610.23 276.81
  Q 609.65 277.28 609.36 276.60"
/>
<path stroke="#780c2a" vector-effect="non-scaling-stroke" d="
  M 632.65 281.27
  C 615.85 281.30 625.55 296.96 633.22 289.20
  Q 633.74 288.67 633.88 289.40
  Q 634.35 291.81 637.06 290.88
  Q 637.52 290.72 637.52 290.24
  C 637.50 282.08 639.09 271.29 625.57 276.05
  Q 624.93 276.28 625.22 276.90
  L 626.16 278.90
  Q 626.38 279.37 626.86 279.14
  Q 629.32 277.94 631.92 278.43
  Q 632.45 278.53 632.66 279.03
  L 633.22 280.43
  Q 633.55 281.26 632.65 281.27"
/>
<path stroke="#780c2a" vector-effect="non-scaling-stroke" d="
  M 642.48 289.29
  A 0.55 0.54 60.8 0 1 642.22 290.22
  C 640.63 290.55 639.72 291.75 639.72 293.39
  C 639.73 299.86 653.62 299.04 654.97 293.27
  C 656.87 285.15 645.97 289.55 644.94 286.64
  A 0.72 0.72 0.0 0 1 645.73 285.69
  C 650.06 286.36 655.07 283.79 653.14 278.60
  Q 652.91 277.98 653.56 277.85
  L 654.55 277.65
  Q 655.03 277.56 655.31 277.15
  Q 655.80 276.43 655.15 275.68
  Q 654.83 275.31 654.34 275.29
  C 649.59 275.11 638.57 273.53 641.19 282.57
  Q 641.36 283.16 642.91 284.59
  Q 643.35 284.99 642.86 285.33
  Q 640.22 287.14 642.48 289.29"
/>
<path stroke="#780c2a" vector-effect="non-scaling-stroke" d="
  M 657.33 280.64
  C 654.99 289.10 662.89 293.32 669.96 290.31
  Q 670.50 290.09 670.50 289.50
  L 670.50 288.49
  Q 670.50 286.74 668.90 287.43
  Q 663.94 289.55 661.49 285.52
  A 0.84 0.84 0.0 0 1 662.21 284.25
  L 670.77 284.25
  Q 671.32 284.25 671.40 283.71
  C 672.80 273.91 659.78 271.79 657.33 280.64"
/>
<path stroke="#780c2a" vector-effect="non-scaling-stroke" d="
  M 684.16 279.48
  C 685.36 282.43 684.69 287.25 684.80 290.51
  Q 684.81 291.00 685.30 291.00
  L 688.50 291.00
  Q 689.04 291.00 689.03 290.46
  Q 688.91 286.18 689.08 281.94
  C 689.18 279.63 691.64 277.02 693.63 279.29
  C 695.11 280.99 694.49 288.05 694.53 290.49
  Q 694.54 291.00 695.05 291.00
  L 698.22 291.00
  Q 698.70 291.00 698.72 290.52
  Q 698.85 285.28 698.67 280.06
  C 698.48 274.54 692.26 273.86 688.98 276.91
  Q 688.58 277.28 688.17 276.93
  Q 684.00 273.45 679.81 276.49
  Q 678.87 277.18 678.45 276.09
  Q 678.31 275.74 677.92 275.45
  Q 677.52 275.16 677.04 275.22
  L 675.64 275.38
  Q 675.00 275.46 675.00 276.10
  L 675.00 290.25
  Q 675.00 291.00 675.75 291.00
  L 678.58 291.00
  Q 679.17 291.00 679.18 290.41
  L 679.39 280.84
  Q 679.40 280.33 679.72 279.93
  Q 681.26 278.00 683.43 278.78
  Q 683.95 278.96 684.16 279.48"
/>
<path stroke="#780c2a" vector-effect="non-scaling-stroke" d="
  M 705.69 290.06
  C 707.52 291.54 716.69 292.64 715.78 287.69
  Q 715.68 287.14 715.14 287.28
  C 712.05 288.03 706.92 289.10 706.89 284.82
  Q 706.89 284.25 707.46 284.25
  L 715.99 284.25
  Q 716.52 284.25 716.60 283.72
  C 717.92 274.45 706.30 271.98 703.07 279.20
  Q 700.19 285.62 705.69 290.06"
/>
<path stroke="#780c2a" vector-effect="non-scaling-stroke" d="
  M 724.49 281.00
  C 725.08 277.77 729.91 277.31 730.12 281.44
  Q 730.38 286.55 730.17 290.39
  Q 730.13 291.00 730.75 291.00
  L 733.81 291.00
  Q 734.43 291.00 734.45 290.37
  C 734.57 287.33 735.14 279.84 733.56 277.33
  C 731.63 274.25 726.73 274.72 724.35 276.89
  Q 723.67 277.52 723.54 276.60
  L 723.46 276.06
  Q 723.36 275.33 722.63 275.31
  L 720.67 275.25
  Q 720.00 275.23 720.00 275.90
  L 720.00 290.25
  Q 720.00 291.00 720.75 291.00
  L 723.76 291.00
  Q 724.34 291.00 724.31 290.42
  Q 724.03 283.49 724.49 281.00"
/>
<path stroke="#780c2a" vector-effect="non-scaling-stroke" d="
  M 794.64 289.11
  Q 795.37 289.49 795.26 290.13
  Q 795.12 291.00 796.00 291.00
  L 798.05 291.00
  Q 798.71 291.00 798.72 290.33
  C 798.79 282.20 800.40 271.32 786.84 276.03
  Q 786.25 276.24 786.48 276.82
  L 787.30 278.89
  Q 787.52 279.45 788.05 279.18
  C 789.83 278.29 794.71 277.07 794.41 280.76
  Q 794.36 281.39 793.73 281.35
  C 779.40 280.56 784.40 295.14 793.15 290.37
  Q 793.61 290.12 793.88 289.67
  L 794.13 289.25
  Q 794.32 288.94 794.64 289.11"
/>
<path stroke="#780c2a" vector-effect="non-scaling-stroke" d="
  M 833.30 287.18
  C 830.32 288.39 825.64 289.08 824.73 284.87
  Q 824.59 284.25 825.23 284.25
  L 833.99 284.25
  Q 834.54 284.25 834.62 283.70
  C 836.01 273.62 822.76 272.08 820.61 280.53
  C 818.36 289.35 825.77 293.06 833.28 290.32
  Q 833.65 290.18 833.69 289.79
  L 833.90 287.63
  Q 833.97 286.91 833.30 287.18"
/>
<path stroke="#780c2a" vector-effect="non-scaling-stroke" d="
  M 871.11 289.41
  C 871.42 291.25 872.78 291.25 874.27 290.88
  Q 874.78 290.76 874.76 290.23
  C 874.63 287.30 875.16 279.33 873.54 277.22
  C 871.28 274.28 865.69 275.00 862.83 276.06
  Q 862.26 276.27 862.48 276.83
  L 863.30 278.89
  Q 863.52 279.45 864.05 279.18
  C 865.81 278.29 870.67 277.07 870.42 280.71
  Q 870.38 281.28 869.81 281.26
  C 855.13 280.68 860.67 295.40 869.35 290.22
  Q 869.83 289.93 870.03 289.41
  Q 870.14 289.11 870.47 289.01
  Q 871.02 288.84 871.11 289.41"
/>
<path stroke="#780c2a" vector-effect="non-scaling-stroke" d="
  M 885.72 286.83
  C 884.82 289.30 880.27 287.66 878.54 287.11
  Q 877.86 286.90 877.94 287.61
  L 878.21 289.88
  Q 878.28 290.44 878.81 290.60
  C 882.96 291.87 890.89 291.99 889.47 285.11
  C 888.90 282.38 884.98 281.22 882.65 280.16
  A 0.85 0.85 0.0 0 1 882.74 278.58
  Q 885.43 277.71 887.83 279.27
  Q 888.34 279.59 888.58 279.04
  L 889.53 276.82
  Q 889.84 276.10 889.09 275.87
  C 886.19 275.03 879.59 274.21 878.35 278.07
  C 876.85 282.73 882.09 284.37 885.26 285.77
  A 0.85 0.84 21.9 0 1 885.72 286.83"
/>
<path stroke="#780c2a" vector-effect="non-scaling-stroke" d="
  M 899.14 285.91
  L 895.85 275.87
  Q 895.68 275.36 895.15 275.37
  L 891.79 275.39
  Q 891.07 275.40 891.33 276.06
  Q 893.79 282.43 896.35 288.75
  C 897.62 291.87 896.56 294.79 892.73 294.28
  Q 892.03 294.19 892.02 294.90
  L 891.99 296.98
  Q 891.98 297.56 892.56 297.66
  C 896.76 298.39 899.08 296.52 900.67 292.65
  Q 904.04 284.44 907.00 275.99
  Q 907.24 275.31 906.52 275.31
  L 903.24 275.31
  Q 902.71 275.31 902.55 275.82
  L 899.36 285.91
  A 0.12 0.12 0.0 0 1 899.14 285.91"
/>
<path stroke="#780c2a" vector-effect="non-scaling-stroke" d="
  M 445.47 176.98
  C 458.61 176.15 458.00 156.40 444.96 156.33
  Q 436.63 156.28 428.10 156.16
  Q 427.50 156.16 427.50 156.75
  L 427.50 176.71
  Q 427.50 177.14 427.93 177.16
  Q 436.73 177.53 445.47 176.98"
/>
<path stroke="#780c2a" vector-effect="non-scaling-stroke" d="
  M 455.41 212.37
  C 462.51 207.35 461.69 193.67 452.87 190.75
  C 446.21 188.54 435.23 189.73 428.02 189.73
  Q 427.50 189.73 427.50 190.25
  L 427.50 214.23
  Q 427.50 214.72 427.99 214.73
  C 433.52 214.81 449.79 216.35 455.41 212.37"
/>
<path stroke="#780c2a" vector-effect="non-scaling-stroke" d="
  M 600.56 174.31
  C 604.92 169.89 604.34 160.14 598.28 157.33
  C 593.62 155.17 582.53 156.19 576.76 156.20
  A 0.77 0.76 90.0 0 0 576.00 156.97
  L 576.00 176.72
  Q 576.00 177.18 576.45 177.19
  C 582.45 177.32 596.18 178.75 600.56 174.31"
/>
<path stroke="#780c2a" vector-effect="non-scaling-stroke" d="
  M 596.55 214.62
  C 612.88 214.36 612.86 190.11 596.47 189.85
  Q 586.68 189.70 576.49 189.73
  A 0.50 0.49 -90.0 0 0 576.00 190.23
  L 576.00 214.24
  Q 576.00 214.73 576.49 214.74
  Q 583.61 214.82 596.55 214.62"
/>
<path stroke="#780c2a" vector-effect="non-scaling-stroke" d="
  M 663.51 177.35
  C 652.38 179.54 652.11 194.87 653.73 203.17
  Q 656.06 215.11 666.78 215.54
  C 680.20 216.07 682.93 204.89 682.49 194.15
  C 682.03 182.66 676.76 174.74 663.51 177.35"
/>
<path stroke="#780c2a" vector-effect="non-scaling-stroke" d="
  M 846.92 177.18
  C 841.75 178.11 838.20 182.31 837.01 187.24
  C 834.75 196.58 834.94 212.98 847.47 215.20
  C 858.89 217.22 864.19 210.63 865.38 200.12
  C 866.78 187.76 862.88 174.30 846.92 177.18"
/>
<path stroke="#780c2a" vector-effect="non-scaling-stroke" d="
  M 809.5795 287.9397
  A 4.73 3.18 89.4 0 0 812.7098 283.1767
  A 4.73 3.18 89.4 0 0 809.4805 278.4803
  A 4.73 3.18 89.4 0 0 806.3502 283.2433
  A 4.73 3.18 89.4 0 0 809.5795 287.9397"
/>
<path stroke="#780c2a" vector-effect="non-scaling-stroke" d="
  M 417.60 274.36
  L 414.11 274.07
  Q 413.50 274.02 413.50 274.63
  L 413.50 278.19
  Q 413.50 278.76 414.06 278.68
  C 415.83 278.44 420.60 278.93 418.88 275.25
  A 1.54 1.54 0.0 0 0 417.60 274.36"
/>
<path stroke="#780c2a" vector-effect="non-scaling-stroke" d="
  M 418.01 282.40
  L 414.14 281.99
  Q 413.44 281.92 413.44 282.62
  L 413.44 286.67
  Q 413.44 287.12 413.89 287.19
  C 416.25 287.55 421.25 287.41 419.22 283.25
  A 1.56 1.53 79.5 0 0 418.01 282.40"
/>
<path stroke="#780c2a" vector-effect="non-scaling-stroke" d="
  M 483.09 278.56
  C 485.10 278.58 488.01 279.05 488.25 276.17
  A 1.64 1.64 0.0 0 0 486.77 274.40
  L 483.24 274.07
  Q 482.50 274.00 482.50 274.75
  L 482.50 277.97
  Q 482.50 278.55 483.09 278.56"
/>
<path stroke="#780c2a" vector-effect="non-scaling-stroke" d="
  M 488.36 285.81
  C 489.44 281.90 485.46 282.05 483.08 282.12
  Q 482.50 282.14 482.50 282.72
  L 482.50 286.50
  Q 482.50 287.02 483.01 287.15
  Q 485.65 287.78 487.76 286.59
  Q 488.22 286.33 488.36 285.81"
/>
<path stroke="#780c2a" vector-effect="non-scaling-stroke" d="
  M 431.53 285.55
  A 1.57 1.57 0.0 0 0 432.53 287.97
  Q 435.46 288.53 436.46 285.87
  A 1.57 1.57 0.0 0 0 434.90 283.75
  Q 432.64 283.88 431.53 285.55"
/>
<path stroke="#780c2a" vector-effect="non-scaling-stroke" d="
  M 510.52 288.04
  Q 514.50 288.23 514.41 284.23
  Q 514.40 283.80 513.96 283.76
  C 512.21 283.62 507.53 284.51 509.54 287.48
  Q 509.89 288.00 510.52 288.04"
/>
<path stroke="#780c2a" vector-effect="non-scaling-stroke" d="
  M 546.34 280.62
  C 545.82 277.18 540.22 277.73 540.76 280.79
  Q 540.85 281.30 541.38 281.29
  L 545.82 281.23
  Q 546.43 281.22 546.34 280.62"
/>
<path stroke="#780c2a" vector-effect="non-scaling-stroke" d="
  M 593.77 288.03
  Q 595.65 288.12 597.01 286.11
  A 1.43 1.42 26.9 0 0 596.31 283.97
  C 592.77 282.70 589.78 287.83 593.77 288.03"
/>
<path stroke="#780c2a" vector-effect="non-scaling-stroke" d="
  M 629.21 284.35
  C 625.61 286.34 629.99 290.55 632.97 286.17
  A 1.48 1.48 0.0 0 0 632.35 283.99
  Q 630.98 283.37 629.21 284.35"
/>
<path stroke="#780c2a" vector-effect="non-scaling-stroke" d="
  M 647.3939 283.1523
  A 2.72 2.32 85.7 0 0 649.5035 280.2660
  A 2.72 2.32 85.7 0 0 646.9861 277.7277
  A 2.72 2.32 85.7 0 0 644.8765 280.6140
  A 2.72 2.32 85.7 0 0 647.3939 283.1523"
/>
<path stroke="#780c2a" vector-effect="non-scaling-stroke" d="
  M 651.4132 292.8246
  A 4.09 1.96 -3.3 0 0 647.2172 291.1033
  A 4.09 1.96 -3.3 0 0 643.2468 293.2954
  A 4.09 1.96 -3.3 0 0 647.4428 295.0167
  A 4.09 1.96 -3.3 0 0 651.4132 292.8246"
/>
<path stroke="#780c2a" vector-effect="non-scaling-stroke" d="
  M 661.96 281.34
  L 666.79 281.34
  A 0.60 0.60 0.0 0 0 667.37 280.60
  C 666.57 277.13 662.16 277.45 661.55 280.85
  A 0.42 0.42 0.0 0 0 661.96 281.34"
/>
<path stroke="#780c2a" vector-effect="non-scaling-stroke" d="
  M 707.14 281.31
  L 712.04 281.31
  A 0.61 0.61 0.0 0 0 712.62 280.50
  C 711.50 277.34 707.17 277.26 706.89 281.05
  A 0.25 0.24 2.1 0 0 707.14 281.31"
/>
<path stroke="#780c2a" vector-effect="non-scaling-stroke" d="
  M 790.52 288.04
  Q 794.51 288.23 794.41 284.21
  A 0.48 0.47 0.0 0 0 793.94 283.75
  C 792.26 283.73 787.48 284.46 789.54 287.49
  Q 789.89 288.00 790.52 288.04"
/>
<path stroke="#780c2a" vector-effect="non-scaling-stroke" d="
  M 825.13 281.30
  L 830.03 281.38
  A 0.63 0.63 0.0 0 0 830.63 280.54
  C 829.54 277.36 825.18 277.23 824.89 281.03
  A 0.26 0.25 -87.8 0 0 825.13 281.30"
/>
<path stroke="#780c2a" vector-effect="non-scaling-stroke" d="
  M 866.52 288.04
  Q 870.50 288.23 870.41 284.23
  Q 870.40 283.80 869.96 283.76
  C 868.21 283.62 863.53 284.51 865.54 287.48
  Q 865.89 288.00 866.52 288.04"
/>
</g>
<path fill="#e20626" d="
  M 0.00 0.00
  L 1200.00 0.00
  L 1200.00 400.00
  L 0.00 400.00
  L 0.00 0.00
  Z
  M 208.01 100.72
  C 201.23 85.50 189.37 72.91 175.36 64.01
  A 0.33 0.33 0.0 0 0 174.88 64.44
  C 186.81 88.77 181.84 112.32 165.33 132.57
  C 146.44 155.74 123.25 176.74 136.81 209.44
  C 144.93 229.01 167.57 239.72 187.48 230.74
  C 205.11 222.79 207.27 203.46 202.96 186.51
  C 200.94 178.62 197.15 168.42 197.57 160.85
  C 198.10 151.11 204.02 141.86 208.00 133.06
  Q 215.25 116.99 208.01 100.72
  Z
  M 257.55 278.26
  C 273.34 270.86 281.61 253.61 280.23 236.47
  C 278.03 209.23 257.98 194.08 243.88 173.21
  C 233.83 158.35 230.72 143.45 241.15 127.82
  A 0.26 0.26 0.0 0 0 240.81 127.45
  C 225.14 136.07 211.16 152.19 213.94 171.24
  C 214.60 175.72 216.52 181.07 217.94 185.94
  C 221.19 197.09 223.36 204.94 220.92 215.82
  C 219.15 223.73 213.35 231.01 211.34 238.27
  C 205.72 258.55 215.63 278.48 237.43 281.43
  Q 247.77 282.83 257.55 278.26
  Z
  M 806.5299 147.2485
  A 9.84 9.40 -0.3 0 0 796.6408 137.9001
  A 9.84 9.40 -0.3 0 0 786.8501 147.3515
  A 9.84 9.40 -0.3 0 0 796.7392 156.6999
  A 9.84 9.40 -0.3 0 0 806.5299 147.2485
  Z
  M 516.59 156.73
  C 527.80 157.68 528.95 169.49 522.91 176.73
  C 521.49 178.44 518.70 180.84 516.43 182.45
  Q 503.14 191.82 496.31 197.56
  C 486.74 205.62 486.76 215.43 486.62 227.37
  A 0.62 0.62 0.0 0 0 487.24 228.00
  L 541.75 228.00
  Q 542.25 228.00 542.25 227.50
  L 542.25 214.50
  Q 542.25 214.00 541.75 214.00
  L 505.00 214.00
  Q 504.03 214.00 504.22 213.04
  C 505.79 205.40 514.94 200.81 520.79 196.55
  C 530.97 189.13 541.40 182.13 542.87 169.48
  C 544.51 155.48 536.29 145.65 522.76 143.27
  Q 499.56 139.19 485.70 156.55
  Q 485.30 157.05 485.73 157.54
  L 494.43 167.33
  A 0.78 0.77 -49.6 0 0 495.66 167.23
  Q 503.09 155.57 516.59 156.73
  Z
  M 473.78 215.95
  Q 478.64 207.92 476.63 198.53
  Q 473.79 185.24 460.92 182.09
  A 0.94 0.94 0.0 0 1 460.67 180.37
  C 478.08 170.20 471.95 145.61 452.19 144.01
  Q 438.31 142.89 411.29 143.71
  Q 410.75 143.73 410.75 144.27
  L 410.75 227.67
  A 0.35 0.34 0.0 0 0 411.10 228.01
  Q 430.56 228.04 449.93 227.81
  C 459.95 227.69 468.38 224.85 473.78 215.95
  Z
  M 597.93 227.84
  C 609.36 227.72 621.29 223.40 624.30 211.08
  Q 629.74 188.85 609.38 181.81
  A 0.83 0.83 0.0 0 1 609.23 180.31
  C 627.40 169.67 619.55 144.17 599.00 143.73
  Q 579.31 143.31 559.67 143.56
  A 0.42 0.42 0.0 0 0 559.25 143.98
  L 559.25 227.51
  A 0.49 0.49 0.0 0 0 559.74 228.00
  Q 578.87 228.05 597.93 227.84
  Z
  M 660.01 164.00
  C 642.53 167.33 635.90 182.59 636.57 198.77
  C 637.41 218.99 651.85 231.05 671.92 228.82
  C 694.23 226.35 702.10 206.81 698.02 186.95
  C 694.16 168.15 677.80 160.61 660.01 164.00
  Z
  M 729.30 173.47
  L 729.23 164.99
  A 0.75 0.75 0.0 0 0 728.48 164.25
  L 714.50 164.25
  A 0.50 0.50 0.0 0 0 714.00 164.75
  L 714.00 227.50
  Q 714.00 228.00 714.50 228.00
  L 729.50 228.00
  A 0.51 0.51 0.0 0 0 730.01 227.49
  Q 729.97 213.30 730.01 199.14
  C 730.05 186.70 731.52 175.26 746.91 176.94
  C 751.68 177.46 754.84 180.93 754.96 185.57
  Q 755.52 206.51 755.15 227.38
  A 0.61 0.61 0.0 0 0 755.76 228.00
  L 770.50 228.00
  Q 771.18 228.00 771.19 227.32
  Q 771.48 209.22 770.92 183.52
  C 770.71 173.77 765.86 165.81 756.06 163.80
  C 745.95 161.72 735.99 164.42 730.63 173.81
  A 0.71 0.71 0.0 0 1 729.30 173.47
  Z
  M 827.19 172.94
  C 819.61 181.84 818.24 194.24 820.46 205.30
  C 823.11 218.51 832.03 226.77 845.05 228.72
  C 863.54 231.48 877.92 222.32 881.20 203.88
  C 883.49 190.94 880.39 174.89 868.95 168.03
  C 856.88 160.80 837.36 160.98 827.19 172.94
  Z
  M 987.67 173.77
  A 0.74 0.74 0.0 0 1 986.25 173.50
  L 986.24 164.90
  Q 986.24 164.25 985.59 164.25
  L 971.25 164.25
  A 0.50 0.50 0.0 0 0 970.75 164.75
  L 970.75 227.38
  Q 970.75 228.00 971.38 228.00
  L 985.97 228.00
  Q 986.77 228.00 986.76 227.21
  Q 986.71 211.95 986.78 196.80
  C 986.83 184.70 992.79 174.62 1006.86 179.54
  A 1.08 1.07 15.3 0 0 1008.27 178.74
  L 1010.74 165.98
  A 0.70 0.69 -73.9 0 0 1010.31 165.20
  C 1001.37 161.71 991.50 164.38 987.67 173.77
  Z
  M 788.66 233.69
  C 788.63 241.18 782.23 242.76 776.35 240.32
  A 0.94 0.94 0.0 0 0 775.06 241.05
  L 773.30 252.50
  A 0.88 0.87 -77.9 0 0 773.92 253.47
  C 787.84 257.42 804.19 253.60 804.47 236.23
  Q 805.04 200.45 804.63 164.63
  A 0.39 0.39 0.0 0 0 804.24 164.25
  L 789.09 164.25
  A 0.36 0.36 0.0 0 0 788.73 164.61
  Q 788.81 199.19 788.66 233.69
  Z
  M 910.51 228.45
  C 920.81 230.62 929.52 228.25 935.33 218.92
  Q 935.57 218.52 936.04 218.51
  C 937.53 218.48 937.00 225.98 937.04 227.33
  Q 937.05 228.00 937.72 228.00
  L 951.75 228.00
  Q 952.25 228.00 952.25 227.50
  L 952.25 164.75
  A 0.50 0.50 0.0 0 0 951.75 164.25
  L 936.81 164.25
  A 0.57 0.57 0.0 0 0 936.24 164.82
  Q 936.28 181.53 936.22 198.28
  C 936.19 207.21 932.66 215.70 922.61 215.65
  C 916.89 215.62 912.06 212.91 912.05 206.67
  Q 912.00 185.78 911.99 164.78
  Q 911.99 164.25 911.46 164.25
  L 896.35 164.25
  A 0.34 0.34 0.0 0 0 896.01 164.59
  Q 895.97 185.56 896.03 206.47
  C 896.06 216.68 899.37 226.10 910.51 228.45
  Z
  M 191.03 248.86
  Q 189.50 248.60 188.00 248.81
  C 181.28 249.77 174.06 250.80 167.62 250.25
  Q 141.55 248.04 128.92 224.45
  Q 128.52 223.71 128.02 224.39
  Q 127.27 225.40 127.07 227.25
  Q 124.34 252.09 134.08 273.14
  C 157.23 323.18 220.75 332.09 259.41 294.37
  C 260.11 293.70 260.77 292.37 261.56 291.56
  Q 261.95 291.18 261.62 290.74
  Q 261.27 290.28 260.50 290.51
  Q 249.44 293.76 238.01 295.04
  C 216.25 297.48 196.39 283.48 194.02 260.99
  Q 193.47 255.71 192.69 250.56
  A 2.03 2.02 0.8 0 0 191.03 248.86
  Z
  M 466.69 285.46
  L 470.27 290.58
  Q 470.56 291.00 471.07 291.00
  L 474.77 291.00
  Q 475.59 291.00 475.10 290.35
  L 469.27 282.62
  A 0.72 0.70 -43.0 0 1 469.31 281.72
  L 474.73 275.75
  A 0.28 0.28 0.0 0 0 474.51 275.28
  L 470.90 275.48
  Q 470.42 275.50 470.06 275.83
  Q 467.02 278.58 464.64 281.91
  A 0.25 0.25 0.0 0 1 464.18 281.76
  L 464.28 269.77
  Q 464.29 269.25 463.77 269.25
  L 460.50 269.25
  Q 460.00 269.25 460.00 269.75
  L 460.00 290.25
  Q 460.00 291.00 460.75 291.00
  L 463.72 291.00
  Q 464.28 291.00 464.27 290.43
  C 464.22 289.00 463.68 285.22 465.78 285.04
  Q 466.36 284.99 466.69 285.46
  Z
  M 501.26 269.77
  A 0.52 0.52 0.0 0 0 500.74 269.25
  L 497.52 269.25
  A 0.52 0.52 0.0 0 0 497.00 269.77
  L 497.00 290.47
  A 0.52 0.52 0.0 0 0 497.52 290.99
  L 500.74 290.99
  A 0.52 0.52 0.0 0 0 501.26 290.47
  L 501.26 269.77
  Z
  M 816.73 290.03
  L 816.76 269.88
  Q 816.76 269.25 816.13 269.25
  L 813.03 269.25
  Q 812.32 269.25 812.35 269.96
  L 812.62 276.42
  A 0.34 0.34 0.0 0 1 812.08 276.71
  C 798.71 267.02 799.09 299.79 812.14 289.45
  Q 812.71 288.99 812.90 289.70
  Q 813.50 291.86 816.24 290.75
  A 0.79 0.77 -11.3 0 0 816.73 290.03
  Z
  M 421.28 280.02
  L 422.68 278.83
  Q 423.04 278.52 423.18 278.07
  C 425.90 269.48 414.83 270.17 409.59 270.61
  Q 409.00 270.66 409.00 271.26
  L 409.00 290.22
  Q 409.00 290.67 409.45 290.76
  Q 414.79 291.72 419.87 290.35
  C 424.42 289.12 426.45 282.16 421.44 280.76
  Q 420.66 280.54 421.28 280.02
  Z
  M 490.39 279.98
  C 494.88 276.61 492.42 271.11 487.25 270.68
  Q 482.89 270.33 478.41 270.56
  A 0.43 0.43 0.0 0 0 478.00 270.99
  L 478.00 290.24
  Q 478.00 290.77 478.53 290.82
  C 485.08 291.41 494.80 291.92 492.97 283.04
  Q 492.68 281.60 490.47 280.66
  Q 489.84 280.39 490.39 279.98
  Z
  M 572.10 284.70
  L 567.87 271.12
  Q 567.68 270.50 567.03 270.50
  L 562.41 270.50
  Q 561.75 270.50 561.75 271.15
  L 561.75 290.25
  Q 561.75 291.00 562.50 291.00
  L 565.16 291.00
  Q 565.82 291.00 565.81 290.34
  L 565.61 276.34
  A 0.19 0.18 36.6 0 1 565.97 276.29
  L 570.32 290.49
  Q 570.48 291.00 571.01 291.00
  L 573.97 291.00
  Q 574.49 291.00 574.65 290.50
  L 579.31 276.23
  Q 579.74 274.93 579.74 276.29
  L 579.72 290.52
  A 0.49 0.48 0.0 0 0 580.21 291.00
  L 583.00 291.00
  Q 583.75 291.00 583.75 290.25
  L 583.75 271.25
  Q 583.75 270.50 583.00 270.50
  L 578.45 270.50
  Q 577.79 270.50 577.59 271.13
  L 573.17 284.70
  Q 572.62 286.37 572.10 284.70
  Z
  M 763.18 276.00
  L 767.55 290.46
  Q 767.71 291.00 768.27 291.00
  L 771.12 291.00
  Q 771.79 291.00 771.99 290.37
  L 776.39 276.38
  A 0.32 0.32 0.0 0 1 777.02 276.48
  L 776.95 290.35
  A 0.65 0.65 0.0 0 0 777.60 291.00
  L 780.50 291.00
  Q 781.00 291.00 781.00 290.50
  L 781.00 271.15
  Q 781.00 270.50 780.34 270.50
  L 775.71 270.50
  Q 775.06 270.50 774.86 271.12
  L 770.31 285.06
  A 0.44 0.44 0.0 0 1 769.48 285.05
  L 765.09 270.93
  Q 764.95 270.50 764.50 270.50
  L 759.66 270.50
  Q 759.00 270.50 759.00 271.15
  L 759.00 290.25
  Q 759.00 291.00 759.75 291.00
  L 762.42 291.00
  Q 763.09 291.00 763.08 290.33
  L 762.78 276.06
  Q 762.75 274.58 763.18 276.00
  Z
  M 850.60 278.50
  A 0.44 0.44 0.0 0 1 850.16 278.04
  L 850.30 274.37
  A 0.44 0.44 0.0 0 1 850.75 273.95
  L 857.05 274.10
  A 0.44 0.44 0.0 0 0 857.50 273.66
  L 857.50 270.94
  A 0.44 0.44 0.0 0 0 857.06 270.50
  L 846.19 270.50
  A 0.44 0.44 0.0 0 0 845.75 270.94
  L 845.75 290.56
  A 0.44 0.44 0.0 0 0 846.19 291.00
  L 857.06 291.00
  A 0.44 0.44 0.0 0 0 857.50 290.56
  L 857.50 287.97
  A 0.44 0.44 0.0 0 0 857.08 287.53
  L 850.67 287.30
  A 0.44 0.44 0.0 0 1 850.25 286.86
  L 850.25 282.58
  A 0.44 0.44 0.0 0 1 850.70 282.14
  L 856.55 282.30
  A 0.44 0.44 0.0 0 0 857.00 281.86
  L 857.00 278.94
  A 0.44 0.44 0.0 0 0 856.56 278.50
  L 850.60 278.50
  Z
  M 739.48 278.99
  C 739.54 282.05 738.74 287.38 740.66 289.68
  C 742.46 291.83 750.21 292.38 748.08 287.77
  Q 747.84 287.25 747.31 287.48
  Q 745.69 288.21 744.27 287.42
  Q 743.75 287.12 743.75 286.52
  L 743.75 279.25
  Q 743.75 278.50 744.50 278.50
  L 747.37 278.50
  Q 748.00 278.50 748.00 277.87
  L 748.00 275.88
  Q 748.00 275.25 747.37 275.25
  L 744.25 275.25
  Q 743.75 275.25 743.75 274.75
  L 743.75 272.78
  Q 743.75 272.32 743.33 272.14
  C 739.81 270.70 741.15 275.36 738.20 276.25
  Q 737.65 276.42 737.54 276.98
  L 737.36 277.91
  Q 737.24 278.50 737.84 278.50
  L 738.98 278.50
  Q 739.47 278.50 739.48 278.99
  Z
  M 437.49 289.57
  Q 437.91 291.78 440.45 290.91
  A 0.75 0.74 -9.0 0 0 440.96 290.22
  C 441.24 281.94 442.45 271.34 429.06 276.05
  Q 428.41 276.28 428.71 276.89
  L 429.71 278.89
  Q 429.94 279.37 430.43 279.13
  C 432.06 278.33 437.07 277.15 436.63 280.66
  Q 436.56 281.26 435.96 281.24
  C 419.89 280.85 428.58 297.09 436.60 289.28
  A 0.53 0.53 0.0 0 1 437.49 289.57
  Z
  M 456.19 275.87
  C 439.95 269.92 440.79 296.92 455.67 290.43
  Q 456.25 290.17 456.25 289.54
  L 456.25 287.25
  Q 456.25 286.61 455.68 286.91
  Q 453.24 288.17 450.52 287.53
  Q 449.99 287.40 449.71 286.92
  Q 447.65 283.31 449.57 279.60
  Q 449.79 279.16 450.24 278.97
  Q 452.63 277.94 454.81 279.33
  Q 455.50 279.78 455.77 279.00
  L 456.58 276.71
  Q 456.80 276.09 456.19 275.87
  Z
  M 515.02 289.25
  Q 515.61 291.78 518.20 290.87
  A 0.93 0.91 79.7 0 0 518.81 289.97
  C 518.71 287.14 519.20 279.16 517.42 277.09
  C 515.03 274.31 509.70 275.04 506.84 276.03
  Q 506.25 276.24 506.48 276.82
  L 507.30 278.89
  Q 507.52 279.45 508.05 279.18
  C 509.80 278.30 514.63 277.07 514.42 280.69
  Q 514.38 281.25 513.82 281.25
  C 510.47 281.22 505.59 281.53 504.78 285.38
  C 503.70 290.50 508.95 292.47 513.09 290.34
  Q 513.51 290.12 513.79 289.74
  L 514.26 289.10
  Q 514.81 288.36 515.02 289.25
  Z
  M 527.34 287.75
  A 0.40 0.40 0.0 0 1 527.02 287.12
  L 533.49 278.24
  A 1.90 1.90 0.0 0 0 531.92 275.23
  L 522.67 275.40
  Q 522.00 275.41 522.00 276.08
  L 522.00 277.87
  Q 522.00 278.50 522.62 278.50
  L 528.04 278.50
  Q 528.85 278.50 528.37 279.16
  L 521.39 288.72
  A 1.43 1.43 0.0 0 0 522.54 291.00
  L 533.25 291.00
  Q 533.75 291.00 533.75 290.50
  L 533.75 288.25
  Q 533.75 287.75 533.25 287.75
  L 527.34 287.75
  Z
  M 542.53 275.11
  C 531.88 275.87 534.52 296.57 549.00 290.22
  Q 549.38 290.06 549.43 289.65
  L 549.66 287.68
  Q 549.72 287.14 549.19 287.25
  C 545.86 287.93 543.42 289.18 540.67 286.05
  A 1.09 1.08 69.4 0 1 541.48 284.25
  L 549.77 284.25
  Q 550.29 284.25 550.37 283.74
  C 551.17 278.37 547.89 274.73 542.53 275.11
  Z
  M 596.71 281.27
  C 579.78 281.30 589.64 296.98 597.17 289.19
  Q 597.77 288.56 597.90 289.42
  Q 598.27 291.88 601.05 290.87
  Q 601.56 290.68 601.54 290.15
  C 601.46 287.22 601.91 279.38 600.27 277.22
  C 598.00 274.24 592.46 275.03 589.58 276.04
  Q 588.92 276.27 589.22 276.90
  L 590.16 278.90
  Q 590.39 279.40 590.88 279.15
  Q 593.35 277.88 595.96 278.48
  Q 596.51 278.61 596.71 279.15
  L 597.22 280.53
  Q 597.49 281.26 596.71 281.27
  Z
  M 609.36 276.60
  L 608.93 275.59
  Q 608.71 275.09 608.18 275.19
  L 606.18 275.57
  Q 605.75 275.65 605.75 276.08
  L 605.75 290.25
  Q 605.75 291.00 606.50 291.00
  L 609.50 291.00
  Q 610.05 291.00 610.03 290.45
  C 609.91 287.21 608.66 278.36 613.75 278.48
  A 2.16 2.16 0.0 0 1 615.86 280.60
  L 616.06 290.41
  Q 616.07 291.00 616.66 291.00
  L 619.55 291.00
  Q 620.23 291.00 620.24 290.32
  C 620.28 286.71 620.88 280.22 619.30 277.49
  C 617.51 274.41 613.06 274.52 610.23 276.81
  Q 609.65 277.28 609.36 276.60
  Z
  M 632.65 281.27
  C 615.85 281.30 625.55 296.96 633.22 289.20
  Q 633.74 288.67 633.88 289.40
  Q 634.35 291.81 637.06 290.88
  Q 637.52 290.72 637.52 290.24
  C 637.50 282.08 639.09 271.29 625.57 276.05
  Q 624.93 276.28 625.22 276.90
  L 626.16 278.90
  Q 626.38 279.37 626.86 279.14
  Q 629.32 277.94 631.92 278.43
  Q 632.45 278.53 632.66 279.03
  L 633.22 280.43
  Q 633.55 281.26 632.65 281.27
  Z
  M 642.48 289.29
  A 0.55 0.54 60.8 0 1 642.22 290.22
  C 640.63 290.55 639.72 291.75 639.72 293.39
  C 639.73 299.86 653.62 299.04 654.97 293.27
  C 656.87 285.15 645.97 289.55 644.94 286.64
  A 0.72 0.72 0.0 0 1 645.73 285.69
  C 650.06 286.36 655.07 283.79 653.14 278.60
  Q 652.91 277.98 653.56 277.85
  L 654.55 277.65
  Q 655.03 277.56 655.31 277.15
  Q 655.80 276.43 655.15 275.68
  Q 654.83 275.31 654.34 275.29
  C 649.59 275.11 638.57 273.53 641.19 282.57
  Q 641.36 283.16 642.91 284.59
  Q 643.35 284.99 642.86 285.33
  Q 640.22 287.14 642.48 289.29
  Z
  M 657.33 280.64
  C 654.99 289.10 662.89 293.32 669.96 290.31
  Q 670.50 290.09 670.50 289.50
  L 670.50 288.49
  Q 670.50 286.74 668.90 287.43
  Q 663.94 289.55 661.49 285.52
  A 0.84 0.84 0.0 0 1 662.21 284.25
  L 670.77 284.25
  Q 671.32 284.25 671.40 283.71
  C 672.80 273.91 659.78 271.79 657.33 280.64
  Z
  M 684.16 279.48
  C 685.36 282.43 684.69 287.25 684.80 290.51
  Q 684.81 291.00 685.30 291.00
  L 688.50 291.00
  Q 689.04 291.00 689.03 290.46
  Q 688.91 286.18 689.08 281.94
  C 689.18 279.63 691.64 277.02 693.63 279.29
  C 695.11 280.99 694.49 288.05 694.53 290.49
  Q 694.54 291.00 695.05 291.00
  L 698.22 291.00
  Q 698.70 291.00 698.72 290.52
  Q 698.85 285.28 698.67 280.06
  C 698.48 274.54 692.26 273.86 688.98 276.91
  Q 688.58 277.28 688.17 276.93
  Q 684.00 273.45 679.81 276.49
  Q 678.87 277.18 678.45 276.09
  Q 678.31 275.74 677.92 275.45
  Q 677.52 275.16 677.04 275.22
  L 675.64 275.38
  Q 675.00 275.46 675.00 276.10
  L 675.00 290.25
  Q 675.00 291.00 675.75 291.00
  L 678.58 291.00
  Q 679.17 291.00 679.18 290.41
  L 679.39 280.84
  Q 679.40 280.33 679.72 279.93
  Q 681.26 278.00 683.43 278.78
  Q 683.95 278.96 684.16 279.48
  Z
  M 705.69 290.06
  C 707.52 291.54 716.69 292.64 715.78 287.69
  Q 715.68 287.14 715.14 287.28
  C 712.05 288.03 706.92 289.10 706.89 284.82
  Q 706.89 284.25 707.46 284.25
  L 715.99 284.25
  Q 716.52 284.25 716.60 283.72
  C 717.92 274.45 706.30 271.98 703.07 279.20
  Q 700.19 285.62 705.69 290.06
  Z
  M 724.49 281.00
  C 725.08 277.77 729.91 277.31 730.12 281.44
  Q 730.38 286.55 730.17 290.39
  Q 730.13 291.00 730.75 291.00
  L 733.81 291.00
  Q 734.43 291.00 734.45 290.37
  C 734.57 287.33 735.14 279.84 733.56 277.33
  C 731.63 274.25 726.73 274.72 724.35 276.89
  Q 723.67 277.52 723.54 276.60
  L 723.46 276.06
  Q 723.36 275.33 722.63 275.31
  L 720.67 275.25
  Q 720.00 275.23 720.00 275.90
  L 720.00 290.25
  Q 720.00 291.00 720.75 291.00
  L 723.76 291.00
  Q 724.34 291.00 724.31 290.42
  Q 724.03 283.49 724.49 281.00
  Z
  M 794.64 289.11
  Q 795.37 289.49 795.26 290.13
  Q 795.12 291.00 796.00 291.00
  L 798.05 291.00
  Q 798.71 291.00 798.72 290.33
  C 798.79 282.20 800.40 271.32 786.84 276.03
  Q 786.25 276.24 786.48 276.82
  L 787.30 278.89
  Q 787.52 279.45 788.05 279.18
  C 789.83 278.29 794.71 277.07 794.41 280.76
  Q 794.36 281.39 793.73 281.35
  C 779.40 280.56 784.40 295.14 793.15 290.37
  Q 793.61 290.12 793.88 289.67
  L 794.13 289.25
  Q 794.32 288.94 794.64 289.11
  Z
  M 833.30 287.18
  C 830.32 288.39 825.64 289.08 824.73 284.87
  Q 824.59 284.25 825.23 284.25
  L 833.99 284.25
  Q 834.54 284.25 834.62 283.70
  C 836.01 273.62 822.76 272.08 820.61 280.53
  C 818.36 289.35 825.77 293.06 833.28 290.32
  Q 833.65 290.18 833.69 289.79
  L 833.90 287.63
  Q 833.97 286.91 833.30 287.18
  Z
  M 871.11 289.41
  C 871.42 291.25 872.78 291.25 874.27 290.88
  Q 874.78 290.76 874.76 290.23
  C 874.63 287.30 875.16 279.33 873.54 277.22
  C 871.28 274.28 865.69 275.00 862.83 276.06
  Q 862.26 276.27 862.48 276.83
  L 863.30 278.89
  Q 863.52 279.45 864.05 279.18
  C 865.81 278.29 870.67 277.07 870.42 280.71
  Q 870.38 281.28 869.81 281.26
  C 855.13 280.68 860.67 295.40 869.35 290.22
  Q 869.83 289.93 870.03 289.41
  Q 870.14 289.11 870.47 289.01
  Q 871.02 288.84 871.11 289.41
  Z
  M 885.72 286.83
  C 884.82 289.30 880.27 287.66 878.54 287.11
  Q 877.86 286.90 877.94 287.61
  L 878.21 289.88
  Q 878.28 290.44 878.81 290.60
  C 882.96 291.87 890.89 291.99 889.47 285.11
  C 888.90 282.38 884.98 281.22 882.65 280.16
  A 0.85 0.85 0.0 0 1 882.74 278.58
  Q 885.43 277.71 887.83 279.27
  Q 888.34 279.59 888.58 279.04
  L 889.53 276.82
  Q 889.84 276.10 889.09 275.87
  C 886.19 275.03 879.59 274.21 878.35 278.07
  C 876.85 282.73 882.09 284.37 885.26 285.77
  A 0.85 0.84 21.9 0 1 885.72 286.83
  Z
  M 899.14 285.91
  L 895.85 275.87
  Q 895.68 275.36 895.15 275.37
  L 891.79 275.39
  Q 891.07 275.40 891.33 276.06
  Q 893.79 282.43 896.35 288.75
  C 897.62 291.87 896.56 294.79 892.73 294.28
  Q 892.03 294.19 892.02 294.90
  L 891.99 296.98
  Q 891.98 297.56 892.56 297.66
  C 896.76 298.39 899.08 296.52 900.67 292.65
  Q 904.04 284.44 907.00 275.99
  Q 907.24 275.31 906.52 275.31
  L 903.24 275.31
  Q 902.71 275.31 902.55 275.82
  L 899.36 285.91
  A 0.12 0.12 0.0 0 1 899.14 285.91
  Z"
/>
<path fill="#ffffff" d="
  M 175.36 64.01
  C 189.37 72.91 201.23 85.50 208.01 100.72
  Q 215.25 116.99 208.00 133.06
  C 204.02 141.86 198.10 151.11 197.57 160.85
  C 197.15 168.42 200.94 178.62 202.96 186.51
  C 207.27 203.46 205.11 222.79 187.48 230.74
  C 167.57 239.72 144.93 229.01 136.81 209.44
  C 123.25 176.74 146.44 155.74 165.33 132.57
  C 181.84 112.32 186.81 88.77 174.88 64.44
  A 0.33 0.33 0.0 0 1 175.36 64.01
  Z"
/>
<path fill="#ffffff" d="
  M 280.23 236.47
  C 281.61 253.61 273.34 270.86 257.55 278.26
  Q 247.77 282.83 237.43 281.43
  C 215.63 278.48 205.72 258.55 211.34 238.27
  C 213.35 231.01 219.15 223.73 220.92 215.82
  C 223.36 204.94 221.19 197.09 217.94 185.94
  C 216.52 181.07 214.60 175.72 213.94 171.24
  C 211.16 152.19 225.14 136.07 240.81 127.45
  A 0.26 0.26 0.0 0 1 241.15 127.82
  C 230.72 143.45 233.83 158.35 243.88 173.21
  C 257.98 194.08 278.03 209.23 280.23 236.47
  Z"
/>
<ellipse fill="#0e112e" cx="0.00" cy="0.00" transform="translate(796.69,147.30) rotate(-0.3)" rx="9.84" ry="9.40"/>
<path fill="#0e112e" d="
  M 522.91 176.73
  C 528.95 169.49 527.80 157.68 516.59 156.73
  Q 503.09 155.57 495.66 167.23
  A 0.78 0.77 -49.6 0 1 494.43 167.33
  L 485.73 157.54
  Q 485.30 157.05 485.70 156.55
  Q 499.56 139.19 522.76 143.27
  C 536.29 145.65 544.51 155.48 542.87 169.48
  C 541.40 182.13 530.97 189.13 520.79 196.55
  C 514.94 200.81 505.79 205.40 504.22 213.04
  Q 504.03 214.00 505.00 214.00
  L 541.75 214.00
  Q 542.25 214.00 542.25 214.50
  L 542.25 227.50
  Q 542.25 228.00 541.75 228.00
  L 487.24 228.00
  A 0.62 0.62 0.0 0 1 486.62 227.37
  C 486.76 215.43 486.74 205.62 496.31 197.56
  Q 503.14 191.82 516.43 182.45
  C 518.70 180.84 521.49 178.44 522.91 176.73
  Z"
/>
<path fill="#0e112e" d="
  M 473.78 215.95
  C 468.38 224.85 459.95 227.69 449.93 227.81
  Q 430.56 228.04 411.10 228.01
  A 0.35 0.34 0.0 0 1 410.75 227.67
  L 410.75 144.27
  Q 410.75 143.73 411.29 143.71
  Q 438.31 142.89 452.19 144.01
  C 471.95 145.61 478.08 170.20 460.67 180.37
  A 0.94 0.94 0.0 0 0 460.92 182.09
  Q 473.79 185.24 476.63 198.53
  Q 478.64 207.92 473.78 215.95
  Z
  M 445.47 176.98
  C 458.61 176.15 458.00 156.40 444.96 156.33
  Q 436.63 156.28 428.10 156.16
  Q 427.50 156.16 427.50 156.75
  L 427.50 176.71
  Q 427.50 177.14 427.93 177.16
  Q 436.73 177.53 445.47 176.98
  Z
  M 455.41 212.37
  C 462.51 207.35 461.69 193.67 452.87 190.75
  C 446.21 188.54 435.23 189.73 428.02 189.73
  Q 427.50 189.73 427.50 190.25
  L 427.50 214.23
  Q 427.50 214.72 427.99 214.73
  C 433.52 214.81 449.79 216.35 455.41 212.37
  Z"
/>
<path fill="#0e112e" d="
  M 624.30 211.08
  C 621.29 223.40 609.36 227.72 597.93 227.84
  Q 578.87 228.05 559.74 228.00
  A 0.49 0.49 0.0 0 1 559.25 227.51
  L 559.25 143.98
  A 0.42 0.42 0.0 0 1 559.67 143.56
  Q 579.31 143.31 599.00 143.73
  C 619.55 144.17 627.40 169.67 609.23 180.31
  A 0.83 0.83 0.0 0 0 609.38 181.81
  Q 629.74 188.85 624.30 211.08
  Z
  M 600.56 174.31
  C 604.92 169.89 604.34 160.14 598.28 157.33
  C 593.62 155.17 582.53 156.19 576.76 156.20
  A 0.77 0.76 90.0 0 0 576.00 156.97
  L 576.00 176.72
  Q 576.00 177.18 576.45 177.19
  C 582.45 177.32 596.18 178.75 600.56 174.31
  Z
  M 596.55 214.62
  C 612.88 214.36 612.86 190.11 596.47 189.85
  Q 586.68 189.70 576.49 189.73
  A 0.50 0.49 -90.0 0 0 576.00 190.23
  L 576.00 214.24
  Q 576.00 214.73 576.49 214.74
  Q 583.61 214.82 596.55 214.62
  Z"
/>
<path fill="#e20626" d="
  M 444.96 156.33
  C 458.00 156.40 458.61 176.15 445.47 176.98
  Q 436.73 177.53 427.93 177.16
  Q 427.50 177.14 427.50 176.71
  L 427.50 156.75
  Q 427.50 156.16 428.10 156.16
  Q 436.63 156.28 444.96 156.33
  Z"
/>
<path fill="#e20626" d="
  M 600.56 174.31
  C 596.18 178.75 582.45 177.32 576.45 177.19
  Q 576.00 177.18 576.00 176.72
  L 576.00 156.97
  A 0.77 0.76 90.0 0 1 576.76 156.20
  C 582.53 156.19 593.62 155.17 598.28 157.33
  C 604.34 160.14 604.92 169.89 600.56 174.31
  Z"
/>
<path fill="#0e112e" d="
  M 636.57 198.77
  C 635.90 182.59 642.53 167.33 660.01 164.00
  C 677.80 160.61 694.16 168.15 698.02 186.95
  C 702.10 206.81 694.23 226.35 671.92 228.82
  C 651.85 231.05 637.41 218.99 636.57 198.77
  Z
  M 663.51 177.35
  C 652.38 179.54 652.11 194.87 653.73 203.17
  Q 656.06 215.11 666.78 215.54
  C 680.20 216.07 682.93 204.89 682.49 194.15
  C 682.03 182.66 676.76 174.74 663.51 177.35
  Z"
/>
<path fill="#0e112e" d="
  M 729.30 173.47
  A 0.71 0.71 0.0 0 0 730.63 173.81
  C 735.99 164.42 745.95 161.72 756.06 163.80
  C 765.86 165.81 770.71 173.77 770.92 183.52
  Q 771.48 209.22 771.19 227.32
  Q 771.18 228.00 770.50 228.00
  L 755.76 228.00
  A 0.61 0.61 0.0 0 1 755.15 227.38
  Q 755.52 206.51 754.96 185.57
  C 754.84 180.93 751.68 177.46 746.91 176.94
  C 731.52 175.26 730.05 186.70 730.01 199.14
  Q 729.97 213.30 730.01 227.49
  A 0.51 0.51 0.0 0 1 729.50 228.00
  L 714.50 228.00
  Q 714.00 228.00 714.00 227.50
  L 714.00 164.75
  A 0.50 0.50 0.0 0 1 714.50 164.25
  L 728.48 164.25
  A 0.75 0.75 0.0 0 1 729.23 164.99
  L 729.30 173.47
  Z"
/>
<path fill="#0e112e" d="
  M 827.19 172.94
  C 837.36 160.98 856.88 160.80 868.95 168.03
  C 880.39 174.89 883.49 190.94 881.20 203.88
  C 877.92 222.32 863.54 231.48 845.05 228.72
  C 832.03 226.77 823.11 218.51 820.46 205.30
  C 818.24 194.24 819.61 181.84 827.19 172.94
  Z
  M 846.92 177.18
  C 841.75 178.11 838.20 182.31 837.01 187.24
  C 834.75 196.58 834.94 212.98 847.47 215.20
  C 858.89 217.22 864.19 210.63 865.38 200.12
  C 866.78 187.76 862.88 174.30 846.92 177.18
  Z"
/>
<path fill="#0e112e" d="
  M 987.67 173.77
  C 991.50 164.38 1001.37 161.71 1010.31 165.20
  A 0.70 0.69 -73.9 0 1 1010.74 165.98
  L 1008.27 178.74
  A 1.08 1.07 15.3 0 1 1006.86 179.54
  C 992.79 174.62 986.83 184.70 986.78 196.80
  Q 986.71 211.95 986.76 227.21
  Q 986.77 228.00 985.97 228.00
  L 971.38 228.00
  Q 970.75 228.00 970.75 227.38
  L 970.75 164.75
  A 0.50 0.50 0.0 0 1 971.25 164.25
  L 985.59 164.25
  Q 986.24 164.25 986.24 164.90
  L 986.25 173.50
  A 0.74 0.74 0.0 0 0 987.67 173.77
  Z"
/>
<path fill="#0e112e" d="
  M 788.66 233.69
  Q 788.81 199.19 788.73 164.61
  A 0.36 0.36 0.0 0 1 789.09 164.25
  L 804.24 164.25
  A 0.39 0.39 0.0 0 1 804.63 164.63
  Q 805.04 200.45 804.47 236.23
  C 804.19 253.60 787.84 257.42 773.92 253.47
  A 0.88 0.87 -77.9 0 1 773.30 252.50
  L 775.06 241.05
  A 0.94 0.94 0.0 0 1 776.35 240.32
  C 782.23 242.76 788.63 241.18 788.66 233.69
  Z"
/>
<path fill="#0e112e" d="
  M 935.33 218.92
  C 929.52 228.25 920.81 230.62 910.51 228.45
  C 899.37 226.10 896.06 216.68 896.03 206.47
  Q 895.97 185.56 896.01 164.59
  A 0.34 0.34 0.0 0 1 896.35 164.25
  L 911.46 164.25
  Q 911.99 164.25 911.99 164.78
  Q 912.00 185.78 912.05 206.67
  C 912.06 212.91 916.89 215.62 922.61 215.65
  C 932.66 215.70 936.19 207.21 936.22 198.28
  Q 936.28 181.53 936.24 164.82
  A 0.57 0.57 0.0 0 1 936.81 164.25
  L 951.75 164.25
  A 0.50 0.50 0.0 0 1 952.25 164.75
  L 952.25 227.50
  Q 952.25 228.00 951.75 228.00
  L 937.72 228.00
  Q 937.05 228.00 937.04 227.33
  C 937.00 225.98 937.53 218.48 936.04 218.51
  Q 935.57 218.52 935.33 218.92
  Z"
/>
<path fill="#e20626" d="
  M 653.73 203.17
  C 652.11 194.87 652.38 179.54 663.51 177.35
  C 676.76 174.74 682.03 182.66 682.49 194.15
  C 682.93 204.89 680.20 216.07 666.78 215.54
  Q 656.06 215.11 653.73 203.17
  Z"
/>
<path fill="#e20626" d="
  M 837.01 187.24
  C 838.20 182.31 841.75 178.11 846.92 177.18
  C 862.88 174.30 866.78 187.76 865.38 200.12
  C 864.19 210.63 858.89 217.22 847.47 215.20
  C 834.94 212.98 834.75 196.58 837.01 187.24
  Z"
/>
<path fill="#e20626" d="
  M 455.41 212.37
  C 449.79 216.35 433.52 214.81 427.99 214.73
  Q 427.50 214.72 427.50 214.23
  L 427.50 190.25
  Q 427.50 189.73 428.02 189.73
  C 435.23 189.73 446.21 188.54 452.87 190.75
  C 461.69 193.67 462.51 207.35 455.41 212.37
  Z"
/>
<path fill="#e20626" d="
  M 596.47 189.85
  C 612.86 190.11 612.88 214.36 596.55 214.62
  Q 583.61 214.82 576.49 214.74
  Q 576.00 214.73 576.00 214.24
  L 576.00 190.23
  A 0.50 0.49 -90.0 0 1 576.49 189.73
  Q 586.68 189.70 596.47 189.85
  Z"
/>
<path fill="#ffffff" d="
  M 191.03 248.86
  A 2.03 2.02 0.8 0 1 192.69 250.56
  Q 193.47 255.71 194.02 260.99
  C 196.39 283.48 216.25 297.48 238.01 295.04
  Q 249.44 293.76 260.50 290.51
  Q 261.27 290.28 261.62 290.74
  Q 261.95 291.18 261.56 291.56
  C 260.77 292.37 260.11 293.70 259.41 294.37
  C 220.75 332.09 157.23 323.18 134.08 273.14
  Q 124.34 252.09 127.07 227.25
  Q 127.27 225.40 128.02 224.39
  Q 128.52 223.71 128.92 224.45
  Q 141.55 248.04 167.62 250.25
  C 174.06 250.80 181.28 249.77 188.00 248.81
  Q 189.50 248.60 191.03 248.86
  Z"
/>
<path fill="#0e112e" d="
  M 465.78 285.04
  C 463.68 285.22 464.22 289.00 464.27 290.43
  Q 464.28 291.00 463.72 291.00
  L 460.75 291.00
  Q 460.00 291.00 460.00 290.25
  L 460.00 269.75
  Q 460.00 269.25 460.50 269.25
  L 463.77 269.25
  Q 464.29 269.25 464.28 269.77
  L 464.18 281.76
  A 0.25 0.25 0.0 0 0 464.64 281.91
  Q 467.02 278.58 470.06 275.83
  Q 470.42 275.50 470.90 275.48
  L 474.51 275.28
  A 0.28 0.28 0.0 0 1 474.73 275.75
  L 469.31 281.72
  A 0.72 0.70 -43.0 0 0 469.27 282.62
  L 475.10 290.35
  Q 475.59 291.00 474.77 291.00
  L 471.07 291.00
  Q 470.56 291.00 470.27 290.58
  L 466.69 285.46
  Q 466.36 284.99 465.78 285.04
  Z"
/>
<rect fill="#0e112e" x="497.00" y="269.25" width="4.26" height="21.74" rx="0.52"/>
<path fill="#0e112e" d="
  M 816.73 290.03
  A 0.79 0.77 -11.3 0 1 816.24 290.75
  Q 813.50 291.86 812.90 289.70
  Q 812.71 288.99 812.14 289.45
  C 799.09 299.79 798.71 267.02 812.08 276.71
  A 0.34 0.34 0.0 0 0 812.62 276.42
  L 812.35 269.96
  Q 812.32 269.25 813.03 269.25
  L 816.13 269.25
  Q 816.76 269.25 816.76 269.88
  L 816.73 290.03
  Z
  M 809.5795 287.9397
  A 4.73 3.18 89.4 0 0 812.7098 283.1767
  A 4.73 3.18 89.4 0 0 809.4805 278.4803
  A 4.73 3.18 89.4 0 0 806.3502 283.2433
  A 4.73 3.18 89.4 0 0 809.5795 287.9397
  Z"
/>
<path fill="#0e112e" d="
  M 421.44 280.76
  C 426.45 282.16 424.42 289.12 419.87 290.35
  Q 414.79 291.72 409.45 290.76
  Q 409.00 290.67 409.00 290.22
  L 409.00 271.26
  Q 409.00 270.66 409.59 270.61
  C 414.83 270.17 425.90 269.48 423.18 278.07
  Q 423.04 278.52 422.68 278.83
  L 421.28 280.02
  Q 420.66 280.54 421.44 280.76
  Z
  M 417.60 274.36
  L 414.11 274.07
  Q 413.50 274.02 413.50 274.63
  L 413.50 278.19
  Q 413.50 278.76 414.06 278.68
  C 415.83 278.44 420.60 278.93 418.88 275.25
  A 1.54 1.54 0.0 0 0 417.60 274.36
  Z
  M 418.01 282.40
  L 414.14 281.99
  Q 413.44 281.92 413.44 282.62
  L 413.44 286.67
  Q 413.44 287.12 413.89 287.19
  C 416.25 287.55 421.25 287.41 419.22 283.25
  A 1.56 1.53 79.5 0 0 418.01 282.40
  Z"
/>
<path fill="#0e112e" d="
  M 490.47 280.66
  Q 492.68 281.60 492.97 283.04
  C 494.80 291.92 485.08 291.41 478.53 290.82
  Q 478.00 290.77 478.00 290.24
  L 478.00 270.99
  A 0.43 0.43 0.0 0 1 478.41 270.56
  Q 482.89 270.33 487.25 270.68
  C 492.42 271.11 494.88 276.61 490.39 279.98
  Q 489.84 280.39 490.47 280.66
  Z
  M 483.09 278.56
  C 485.10 278.58 488.01 279.05 488.25 276.17
  A 1.64 1.64 0.0 0 0 486.77 274.40
  L 483.24 274.07
  Q 482.50 274.00 482.50 274.75
  L 482.50 277.97
  Q 482.50 278.55 483.09 278.56
  Z
  M 488.36 285.81
  C 489.44 281.90 485.46 282.05 483.08 282.12
  Q 482.50 282.14 482.50 282.72
  L 482.50 286.50
  Q 482.50 287.02 483.01 287.15
  Q 485.65 287.78 487.76 286.59
  Q 488.22 286.33 488.36 285.81
  Z"
/>
<path fill="#0e112e" d="
  M 572.10 284.70
  Q 572.62 286.37 573.17 284.70
  L 577.59 271.13
  Q 577.79 270.50 578.45 270.50
  L 583.00 270.50
  Q 583.75 270.50 583.75 271.25
  L 583.75 290.25
  Q 583.75 291.00 583.00 291.00
  L 580.21 291.00
  A 0.49 0.48 0.0 0 1 579.72 290.52
  L 579.74 276.29
  Q 579.74 274.93 579.31 276.23
  L 574.65 290.50
  Q 574.49 291.00 573.97 291.00
  L 571.01 291.00
  Q 570.48 291.00 570.32 290.49
  L 565.97 276.29
  A 0.19 0.18 36.6 0 0 565.61 276.34
  L 565.81 290.34
  Q 565.82 291.00 565.16 291.00
  L 562.50 291.00
  Q 561.75 291.00 561.75 290.25
  L 561.75 271.15
  Q 561.75 270.50 562.41 270.50
  L 567.03 270.50
  Q 567.68 270.50 567.87 271.12
  L 572.10 284.70
  Z"
/>
<path fill="#0e112e" d="
  M 762.78 276.06
  L 763.08 290.33
  Q 763.09 291.00 762.42 291.00
  L 759.75 291.00
  Q 759.00 291.00 759.00 290.25
  L 759.00 271.15
  Q 759.00 270.50 759.66 270.50
  L 764.50 270.50
  Q 764.95 270.50 765.09 270.93
  L 769.48 285.05
  A 0.44 0.44 0.0 0 0 770.31 285.06
  L 774.86 271.12
  Q 775.06 270.50 775.71 270.50
  L 780.34 270.50
  Q 781.00 270.50 781.00 271.15
  L 781.00 290.50
  Q 781.00 291.00 780.50 291.00
  L 777.60 291.00
  A 0.65 0.65 0.0 0 1 776.95 290.35
  L 777.02 276.48
  A 0.32 0.32 0.0 0 0 776.39 276.38
  L 771.99 290.37
  Q 771.79 291.00 771.12 291.00
  L 768.27 291.00
  Q 767.71 291.00 767.55 290.46
  L 763.18 276.00
  Q 762.75 274.58 762.78 276.06
  Z"
/>
<path fill="#0e112e" d="
  M 850.60 278.50
  L 856.56 278.50
  A 0.44 0.44 0.0 0 1 857.00 278.94
  L 857.00 281.86
  A 0.44 0.44 0.0 0 1 856.55 282.30
  L 850.70 282.14
  A 0.44 0.44 0.0 0 0 850.25 282.58
  L 850.25 286.86
  A 0.44 0.44 0.0 0 0 850.67 287.30
  L 857.08 287.53
  A 0.44 0.44 0.0 0 1 857.50 287.97
  L 857.50 290.56
  A 0.44 0.44 0.0 0 1 857.06 291.00
  L 846.19 291.00
  A 0.44 0.44 0.0 0 1 845.75 290.56
  L 845.75 270.94
  A 0.44 0.44 0.0 0 1 846.19 270.50
  L 857.06 270.50
  A 0.44 0.44 0.0 0 1 857.50 270.94
  L 857.50 273.66
  A 0.44 0.44 0.0 0 1 857.05 274.10
  L 850.75 273.95
  A 0.44 0.44 0.0 0 0 850.30 274.37
  L 850.16 278.04
  A 0.44 0.44 0.0 0 0 850.60 278.50
  Z"
/>
<path fill="#0e112e" d="
  M 738.98 278.50
  L 737.84 278.50
  Q 737.24 278.50 737.36 277.91
  L 737.54 276.98
  Q 737.65 276.42 738.20 276.25
  C 741.15 275.36 739.81 270.70 743.33 272.14
  Q 743.75 272.32 743.75 272.78
  L 743.75 274.75
  Q 743.75 275.25 744.25 275.25
  L 747.37 275.25
  Q 748.00 275.25 748.00 275.88
  L 748.00 277.87
  Q 748.00 278.50 747.37 278.50
  L 744.50 278.50
  Q 743.75 278.50 743.75 279.25
  L 743.75 286.52
  Q 743.75 287.12 744.27 287.42
  Q 745.69 288.21 747.31 287.48
  Q 747.84 287.25 748.08 287.77
  C 750.21 292.38 742.46 291.83 740.66 289.68
  C 738.74 287.38 739.54 282.05 739.48 278.99
  Q 739.47 278.50 738.98 278.50
  Z"
/>
<path fill="#e20626" d="
  M 417.60 274.36
  A 1.54 1.54 0.0 0 1 418.88 275.25
  C 420.60 278.93 415.83 278.44 414.06 278.68
  Q 413.50 278.76 413.50 278.19
  L 413.50 274.63
  Q 413.50 274.02 414.11 274.07
  L 417.60 274.36
  Z"
/>
<path fill="#e20626" d="
  M 482.50 277.97
  L 482.50 274.75
  Q 482.50 274.00 483.24 274.07
  L 486.77 274.40
  A 1.64 1.64 0.0 0 1 488.25 276.17
  C 488.01 279.05 485.10 278.58 483.09 278.56
  Q 482.50 278.55 482.50 277.97
  Z"
/>
<path fill="#0e112e" d="
  M 437.49 289.57
  A 0.53 0.53 0.0 0 0 436.60 289.28
  C 428.58 297.09 419.89 280.85 435.96 281.24
  Q 436.56 281.26 436.63 280.66
  C 437.07 277.15 432.06 278.33 430.43 279.13
  Q 429.94 279.37 429.71 278.89
  L 428.71 276.89
  Q 428.41 276.28 429.06 276.05
  C 442.45 271.34 441.24 281.94 440.96 290.22
  A 0.75 0.74 -9.0 0 1 440.45 290.91
  Q 437.91 291.78 437.49 289.57
  Z
  M 431.53 285.55
  A 1.57 1.57 0.0 0 0 432.53 287.97
  Q 435.46 288.53 436.46 285.87
  A 1.57 1.57 0.0 0 0 434.90 283.75
  Q 432.64 283.88 431.53 285.55
  Z"
/>
<path fill="#0e112e" d="
  M 455.67 290.43
  C 440.79 296.92 439.95 269.92 456.19 275.87
  Q 456.80 276.09 456.58 276.71
  L 455.77 279.00
  Q 455.50 279.78 454.81 279.33
  Q 452.63 277.94 450.24 278.97
  Q 449.79 279.16 449.57 279.60
  Q 447.65 283.31 449.71 286.92
  Q 449.99 287.40 450.52 287.53
  Q 453.24 288.17 455.68 286.91
  Q 456.25 286.61 456.25 287.25
  L 456.25 289.54
  Q 456.25 290.17 455.67 290.43
  Z"
/>
<path fill="#0e112e" d="
  M 514.26 289.10
  L 513.79 289.74
  Q 513.51 290.12 513.09 290.34
  C 508.95 292.47 503.70 290.50 504.78 285.38
  C 505.59 281.53 510.47 281.22 513.82 281.25
  Q 514.38 281.25 514.42 280.69
  C 514.63 277.07 509.80 278.30 508.05 279.18
  Q 507.52 279.45 507.30 278.89
  L 506.48 276.82
  Q 506.25 276.24 506.84 276.03
  C 509.70 275.04 515.03 274.31 517.42 277.09
  C 519.20 279.16 518.71 287.14 518.81 289.97
  A 0.93 0.91 79.7 0 1 518.20 290.87
  Q 515.61 291.78 515.02 289.25
  Q 514.81 288.36 514.26 289.10
  Z
  M 510.52 288.04
  Q 514.50 288.23 514.41 284.23
  Q 514.40 283.80 513.96 283.76
  C 512.21 283.62 507.53 284.51 509.54 287.48
  Q 509.89 288.00 510.52 288.04
  Z"
/>
<path fill="#0e112e" d="
  M 527.34 287.75
  L 533.25 287.75
  Q 533.75 287.75 533.75 288.25
  L 533.75 290.50
  Q 533.75 291.00 533.25 291.00
  L 522.54 291.00
  A 1.43 1.43 0.0 0 1 521.39 288.72
  L 528.37 279.16
  Q 528.85 278.50 528.04 278.50
  L 522.62 278.50
  Q 522.00 278.50 522.00 277.87
  L 522.00 276.08
  Q 522.00 275.41 522.67 275.40
  L 531.92 275.23
  A 1.90 1.90 0.0 0 1 533.49 278.24
  L 527.02 287.12
  A 0.40 0.40 0.0 0 0 527.34 287.75
  Z"
/>
<path fill="#0e112e" d="
  M 549.00 290.22
  C 534.52 296.57 531.88 275.87 542.53 275.11
  C 547.89 274.73 551.17 278.37 550.37 283.74
  Q 550.29 284.25 549.77 284.25
  L 541.48 284.25
  A 1.09 1.08 69.4 0 0 540.67 286.05
  C 543.42 289.18 545.86 287.93 549.19 287.25
  Q 549.72 287.14 549.66 287.68
  L 549.43 289.65
  Q 549.38 290.06 549.00 290.22
  Z
  M 546.34 280.62
  C 545.82 277.18 540.22 277.73 540.76 280.79
  Q 540.85 281.30 541.38 281.29
  L 545.82 281.23
  Q 546.43 281.22 546.34 280.62
  Z"
/>
<path fill="#0e112e" d="
  M 597.22 280.53
  L 596.71 279.15
  Q 596.51 278.61 595.96 278.48
  Q 593.35 277.88 590.88 279.15
  Q 590.39 279.40 590.16 278.90
  L 589.22 276.90
  Q 588.92 276.27 589.58 276.04
  C 592.46 275.03 598.00 274.24 600.27 277.22
  C 601.91 279.38 601.46 287.22 601.54 290.15
  Q 601.56 290.68 601.05 290.87
  Q 598.27 291.88 597.90 289.42
  Q 597.77 288.56 597.17 289.19
  C 589.64 296.98 579.78 281.30 596.71 281.27
  Q 597.49 281.26 597.22 280.53
  Z
  M 593.77 288.03
  Q 595.65 288.12 597.01 286.11
  A 1.43 1.42 26.9 0 0 596.31 283.97
  C 592.77 282.70 589.78 287.83 593.77 288.03
  Z"
/>
<path fill="#0e112e" d="
  M 610.23 276.81
  C 613.06 274.52 617.51 274.41 619.30 277.49
  C 620.88 280.22 620.28 286.71 620.24 290.32
  Q 620.23 291.00 619.55 291.00
  L 616.66 291.00
  Q 616.07 291.00 616.06 290.41
  L 615.86 280.60
  A 2.16 2.16 0.0 0 0 613.75 278.48
  C 608.66 278.36 609.91 287.21 610.03 290.45
  Q 610.05 291.00 609.50 291.00
  L 606.50 291.00
  Q 605.75 291.00 605.75 290.25
  L 605.75 276.08
  Q 605.75 275.65 606.18 275.57
  L 608.18 275.19
  Q 608.71 275.09 608.93 275.59
  L 609.36 276.60
  Q 609.65 277.28 610.23 276.81
  Z"
/>
<path fill="#0e112e" d="
  M 633.22 280.43
  L 632.66 279.03
  Q 632.45 278.53 631.92 278.43
  Q 629.32 277.94 626.86 279.14
  Q 626.38 279.37 626.16 278.90
  L 625.22 276.90
  Q 624.93 276.28 625.57 276.05
  C 639.09 271.29 637.50 282.08 637.52 290.24
  Q 637.52 290.72 637.06 290.88
  Q 634.35 291.81 633.88 289.40
  Q 633.74 288.67 633.22 289.20
  C 625.55 296.96 615.85 281.30 632.65 281.27
  Q 633.55 281.26 633.22 280.43
  Z
  M 629.21 284.35
  C 625.61 286.34 629.99 290.55 632.97 286.17
  A 1.48 1.48 0.0 0 0 632.35 283.99
  Q 630.98 283.37 629.21 284.35
  Z"
/>
<path fill="#0e112e" d="
  M 642.48 289.29
  Q 640.22 287.14 642.86 285.33
  Q 643.35 284.99 642.91 284.59
  Q 641.36 283.16 641.19 282.57
  C 638.57 273.53 649.59 275.11 654.34 275.29
  Q 654.83 275.31 655.15 275.68
  Q 655.80 276.43 655.31 277.15
  Q 655.03 277.56 654.55 277.65
  L 653.56 277.85
  Q 652.91 277.98 653.14 278.60
  C 655.07 283.79 650.06 286.36 645.73 285.69
  A 0.72 0.72 0.0 0 0 644.94 286.64
  C 645.97 289.55 656.87 285.15 654.97 293.27
  C 653.62 299.04 639.73 299.86 639.72 293.39
  C 639.72 291.75 640.63 290.55 642.22 290.22
  A 0.55 0.54 60.8 0 0 642.48 289.29
  Z
  M 647.3939 283.1523
  A 2.72 2.32 85.7 0 0 649.5035 280.2660
  A 2.72 2.32 85.7 0 0 646.9861 277.7277
  A 2.72 2.32 85.7 0 0 644.8765 280.6140
  A 2.72 2.32 85.7 0 0 647.3939 283.1523
  Z
  M 651.4132 292.8246
  A 4.09 1.96 -3.3 0 0 647.2172 291.1033
  A 4.09 1.96 -3.3 0 0 643.2468 293.2954
  A 4.09 1.96 -3.3 0 0 647.4428 295.0167
  A 4.09 1.96 -3.3 0 0 651.4132 292.8246
  Z"
/>
<path fill="#0e112e" d="
  M 669.96 290.31
  C 662.89 293.32 654.99 289.10 657.33 280.64
  C 659.78 271.79 672.80 273.91 671.40 283.71
  Q 671.32 284.25 670.77 284.25
  L 662.21 284.25
  A 0.84 0.84 0.0 0 0 661.49 285.52
  Q 663.94 289.55 668.90 287.43
  Q 670.50 286.74 670.50 288.49
  L 670.50 289.50
  Q 670.50 290.09 669.96 290.31
  Z
  M 661.96 281.34
  L 666.79 281.34
  A 0.60 0.60 0.0 0 0 667.37 280.60
  C 666.57 277.13 662.16 277.45 661.55 280.85
  A 0.42 0.42 0.0 0 0 661.96 281.34
  Z"
/>
<path fill="#0e112e" d="
  M 683.43 278.78
  Q 681.26 278.00 679.72 279.93
  Q 679.40 280.33 679.39 280.84
  L 679.18 290.41
  Q 679.17 291.00 678.58 291.00
  L 675.75 291.00
  Q 675.00 291.00 675.00 290.25
  L 675.00 276.10
  Q 675.00 275.46 675.64 275.38
  L 677.04 275.22
  Q 677.52 275.16 677.92 275.45
  Q 678.31 275.74 678.45 276.09
  Q 678.87 277.18 679.81 276.49
  Q 684.00 273.45 688.17 276.93
  Q 688.58 277.28 688.98 276.91
  C 692.26 273.86 698.48 274.54 698.67 280.06
  Q 698.85 285.28 698.72 290.52
  Q 698.70 291.00 698.22 291.00
  L 695.05 291.00
  Q 694.54 291.00 694.53 290.49
  C 694.49 288.05 695.11 280.99 693.63 279.29
  C 691.64 277.02 689.18 279.63 689.08 281.94
  Q 688.91 286.18 689.03 290.46
  Q 689.04 291.00 688.50 291.00
  L 685.30 291.00
  Q 684.81 291.00 684.80 290.51
  C 684.69 287.25 685.36 282.43 684.16 279.48
  Q 683.95 278.96 683.43 278.78
  Z"
/>
<path fill="#0e112e" d="
  M 705.69 290.06
  Q 700.19 285.62 703.07 279.20
  C 706.30 271.98 717.92 274.45 716.60 283.72
  Q 716.52 284.25 715.99 284.25
  L 707.46 284.25
  Q 706.89 284.25 706.89 284.82
  C 706.92 289.10 712.05 288.03 715.14 287.28
  Q 715.68 287.14 715.78 287.69
  C 716.69 292.64 707.52 291.54 705.69 290.06
  Z
  M 707.14 281.31
  L 712.04 281.31
  A 0.61 0.61 0.0 0 0 712.62 280.50
  C 711.50 277.34 707.17 277.26 706.89 281.05
  A 0.25 0.24 2.1 0 0 707.14 281.31
  Z"
/>
<path fill="#0e112e" d="
  M 730.12 281.44
  C 729.91 277.31 725.08 277.77 724.49 281.00
  Q 724.03 283.49 724.31 290.42
  Q 724.34 291.00 723.76 291.00
  L 720.75 291.00
  Q 720.00 291.00 720.00 290.25
  L 720.00 275.90
  Q 720.00 275.23 720.67 275.25
  L 722.63 275.31
  Q 723.36 275.33 723.46 276.06
  L 723.54 276.60
  Q 723.67 277.52 724.35 276.89
  C 726.73 274.72 731.63 274.25 733.56 277.33
  C 735.14 279.84 734.57 287.33 734.45 290.37
  Q 734.43 291.00 733.81 291.00
  L 730.75 291.00
  Q 730.13 291.00 730.17 290.39
  Q 730.38 286.55 730.12 281.44
  Z"
/>
<path fill="#0e112e" d="
  M 794.13 289.25
  L 793.88 289.67
  Q 793.61 290.12 793.15 290.37
  C 784.40 295.14 779.40 280.56 793.73 281.35
  Q 794.36 281.39 794.41 280.76
  C 794.71 277.07 789.83 278.29 788.05 279.18
  Q 787.52 279.45 787.30 278.89
  L 786.48 276.82
  Q 786.25 276.24 786.84 276.03
  C 800.40 271.32 798.79 282.20 798.72 290.33
  Q 798.71 291.00 798.05 291.00
  L 796.00 291.00
  Q 795.12 291.00 795.26 290.13
  Q 795.37 289.49 794.64 289.11
  Q 794.32 288.94 794.13 289.25
  Z
  M 790.52 288.04
  Q 794.51 288.23 794.41 284.21
  A 0.48 0.47 0.0 0 0 793.94 283.75
  C 792.26 283.73 787.48 284.46 789.54 287.49
  Q 789.89 288.00 790.52 288.04
  Z"
/>
<path fill="#0e112e" d="
  M 824.73 284.87
  C 825.64 289.08 830.32 288.39 833.30 287.18
  Q 833.97 286.91 833.90 287.63
  L 833.69 289.79
  Q 833.65 290.18 833.28 290.32
  C 825.77 293.06 818.36 289.35 820.61 280.53
  C 822.76 272.08 836.01 273.62 834.62 283.70
  Q 834.54 284.25 833.99 284.25
  L 825.23 284.25
  Q 824.59 284.25 824.73 284.87
  Z
  M 825.13 281.30
  L 830.03 281.38
  A 0.63 0.63 0.0 0 0 830.63 280.54
  C 829.54 277.36 825.18 277.23 824.89 281.03
  A 0.26 0.25 -87.8 0 0 825.13 281.30
  Z"
/>
<path fill="#0e112e" d="
  M 870.47 289.01
  Q 870.14 289.11 870.03 289.41
  Q 869.83 289.93 869.35 290.22
  C 860.67 295.40 855.13 280.68 869.81 281.26
  Q 870.38 281.28 870.42 280.71
  C 870.67 277.07 865.81 278.29 864.05 279.18
  Q 863.52 279.45 863.30 278.89
  L 862.48 276.83
  Q 862.26 276.27 862.83 276.06
  C 865.69 275.00 871.28 274.28 873.54 277.22
  C 875.16 279.33 874.63 287.30 874.76 290.23
  Q 874.78 290.76 874.27 290.88
  C 872.78 291.25 871.42 291.25 871.11 289.41
  Q 871.02 288.84 870.47 289.01
  Z
  M 866.52 288.04
  Q 870.50 288.23 870.41 284.23
  Q 870.40 283.80 869.96 283.76
  C 868.21 283.62 863.53 284.51 865.54 287.48
  Q 865.89 288.00 866.52 288.04
  Z"
/>
<path fill="#0e112e" d="
  M 885.72 286.83
  A 0.85 0.84 21.9 0 0 885.26 285.77
  C 882.09 284.37 876.85 282.73 878.35 278.07
  C 879.59 274.21 886.19 275.03 889.09 275.87
  Q 889.84 276.10 889.53 276.82
  L 888.58 279.04
  Q 888.34 279.59 887.83 279.27
  Q 885.43 277.71 882.74 278.58
  A 0.85 0.85 0.0 0 0 882.65 280.16
  C 884.98 281.22 888.90 282.38 889.47 285.11
  C 890.89 291.99 882.96 291.87 878.81 290.60
  Q 878.28 290.44 878.21 289.88
  L 877.94 287.61
  Q 877.86 286.90 878.54 287.11
  C 880.27 287.66 884.82 289.30 885.72 286.83
  Z"
/>
<path fill="#0e112e" d="
  M 899.14 285.91
  A 0.12 0.12 0.0 0 0 899.36 285.91
  L 902.55 275.82
  Q 902.71 275.31 903.24 275.31
  L 906.52 275.31
  Q 907.24 275.31 907.00 275.99
  Q 904.04 284.44 900.67 292.65
  C 899.08 296.52 896.76 298.39 892.56 297.66
  Q 891.98 297.56 891.99 296.98
  L 892.02 294.90
  Q 892.03 294.19 892.73 294.28
  C 896.56 294.79 897.62 291.87 896.35 288.75
  Q 893.79 282.43 891.33 276.06
  Q 891.07 275.40 891.79 275.39
  L 895.15 275.37
  Q 895.68 275.36 895.85 275.87
  L 899.14 285.91
  Z"
/>
<ellipse fill="#e20626" cx="0.00" cy="0.00" transform="translate(647.19,280.44) rotate(85.7)" rx="2.72" ry="2.32"/>
<path fill="#e20626" d="
  M 540.76 280.79
  C 540.22 277.73 545.82 277.18 546.34 280.62
  Q 546.43 281.22 545.82 281.23
  L 541.38 281.29
  Q 540.85 281.30 540.76 280.79
  Z"
/>
<path fill="#e20626" d="
  M 661.96 281.34
  A 0.42 0.42 0.0 0 1 661.55 280.85
  C 662.16 277.45 666.57 277.13 667.37 280.60
  A 0.60 0.60 0.0 0 1 666.79 281.34
  L 661.96 281.34
  Z"
/>
<path fill="#e20626" d="
  M 707.14 281.31
  A 0.25 0.24 2.1 0 1 706.89 281.05
  C 707.17 277.26 711.50 277.34 712.62 280.50
  A 0.61 0.61 0.0 0 1 712.04 281.31
  L 707.14 281.31
  Z"
/>
<path fill="#e20626" d="
  M 825.13 281.30
  A 0.26 0.25 -87.8 0 1 824.89 281.03
  C 825.18 277.23 829.54 277.36 830.63 280.54
  A 0.63 0.63 0.0 0 1 830.03 281.38
  L 825.13 281.30
  Z"
/>
<ellipse fill="#e20626" cx="0.00" cy="0.00" transform="translate(809.53,283.21) rotate(89.4)" rx="4.73" ry="3.18"/>
<path fill="#e20626" d="
  M 418.01 282.40
  A 1.56 1.53 79.5 0 1 419.22 283.25
  C 421.25 287.41 416.25 287.55 413.89 287.19
  Q 413.44 287.12 413.44 286.67
  L 413.44 282.62
  Q 413.44 281.92 414.14 281.99
  L 418.01 282.40
  Z"
/>
<path fill="#e20626" d="
  M 483.08 282.12
  C 485.46 282.05 489.44 281.90 488.36 285.81
  Q 488.22 286.33 487.76 286.59
  Q 485.65 287.78 483.01 287.15
  Q 482.50 287.02 482.50 286.50
  L 482.50 282.72
  Q 482.50 282.14 483.08 282.12
  Z"
/>
<path fill="#e20626" d="
  M 431.53 285.55
  Q 432.64 283.88 434.90 283.75
  A 1.57 1.57 0.0 0 1 436.46 285.87
  Q 435.46 288.53 432.53 287.97
  A 1.57 1.57 0.0 0 1 431.53 285.55
  Z"
/>
<path fill="#e20626" d="
  M 509.54 287.48
  C 507.53 284.51 512.21 283.62 513.96 283.76
  Q 514.40 283.80 514.41 284.23
  Q 514.50 288.23 510.52 288.04
  Q 509.89 288.00 509.54 287.48
  Z"
/>
<path fill="#e20626" d="
  M 593.77 288.03
  C 589.78 287.83 592.77 282.70 596.31 283.97
  A 1.43 1.42 26.9 0 1 597.01 286.11
  Q 595.65 288.12 593.77 288.03
  Z"
/>
<path fill="#e20626" d="
  M 632.97 286.17
  C 629.99 290.55 625.61 286.34 629.21 284.35
  Q 630.98 283.37 632.35 283.99
  A 1.48 1.48 0.0 0 1 632.97 286.17
  Z"
/>
<path fill="#e20626" d="
  M 789.54 287.49
  C 787.48 284.46 792.26 283.73 793.94 283.75
  A 0.48 0.47 0.0 0 1 794.41 284.21
  Q 794.51 288.23 790.52 288.04
  Q 789.89 288.00 789.54 287.49
  Z"
/>
<path fill="#e20626" d="
  M 865.54 287.48
  C 863.53 284.51 868.21 283.62 869.96 283.76
  Q 870.40 283.80 870.41 284.23
  Q 870.50 288.23 866.52 288.04
  Q 865.89 288.00 865.54 287.48
  Z"
/>
<ellipse fill="#e20626" cx="0.00" cy="0.00" transform="translate(647.33,293.06) rotate(-3.3)" rx="4.09" ry="1.96"/>
</svg>
